<?xml version="1.0" encoding="UTF-8" standalone="no"?>
<svg
   xmlns:dc="http://purl.org/dc/elements/1.1/"
   xmlns:cc="http://creativecommons.org/ns#"
   xmlns:rdf="http://www.w3.org/1999/02/22-rdf-syntax-ns#"
   xmlns:svg="http://www.w3.org/2000/svg"
   xmlns="http://www.w3.org/2000/svg"
   xmlns:sodipodi="http://sodipodi.sourceforge.net/DTD/sodipodi-0.dtd"
   xmlns:inkscape="http://www.inkscape.org/namespaces/inkscape"
   viewBox="0 0 402.69998 162.60001"
   version="1.1"
   id="svg380"
   sodipodi:docname="02.svg"
   width="402.69998"
   height="162.60001"
   inkscape:version="0.92.4 (5da689c313, 2019-01-14)">
  <metadata
     id="metadata386">
    <rdf:RDF>
      <cc:Work
         rdf:about="">
        <dc:format>image/svg+xml</dc:format>
        <dc:type
           rdf:resource="http://purl.org/dc/dcmitype/StillImage" />
      </cc:Work>
    </rdf:RDF>
  </metadata>
  <defs
     id="defs384" />
  <sodipodi:namedview
     pagecolor="#ffffff"
     bordercolor="#666666"
     borderopacity="1"
     objecttolerance="10"
     gridtolerance="10"
     guidetolerance="10"
     inkscape:pageopacity="0"
     inkscape:pageshadow="2"
     inkscape:window-width="956"
     inkscape:window-height="1051"
     id="namedview382"
     showgrid="false"
     inkscape:zoom="2.5039788"
     inkscape:cx="181.41719"
     inkscape:cy="76.430562"
     inkscape:window-x="960"
     inkscape:window-y="25"
     inkscape:window-maximized="0"
     inkscape:current-layer="advanced_x5F_tips_x5F_rewritinghistory_x5F_3" />
  <style
     id="style332">.st0{display:none;} .st1{display:inline;} .st2{fill:#FFFFFF;} .st3{fill:none;stroke:#9882CE;stroke-width:4;stroke-miterlimit:10;} .st4{fill:#FFFFFF;stroke:#404040;stroke-width:4;stroke-linecap:round;stroke-linejoin:round;stroke-miterlimit:10;} .st5{fill:#FFFFFF;stroke:#404040;stroke-width:4;stroke-miterlimit:10;} .st6{fill:#B3E3FF;stroke:#404040;stroke-width:4;stroke-miterlimit:10;} .st7{fill:#B18BE8;stroke:#404040;stroke-width:4;stroke-miterlimit:10;} .st8{fill:#FFFFFF;stroke:#404040;stroke-width:6;stroke-miterlimit:10;} .st9{fill:#B3E3FF;stroke:#404040;stroke-width:6;stroke-miterlimit:10;} .st10{fill:#404040;} .st11{fill:none;stroke:#404040;stroke-width:4;stroke-linecap:round;stroke-linejoin:round;stroke-miterlimit:10;} .st12{fill:#B18BE8;stroke:#404040;stroke-width:4;stroke-linecap:round;stroke-linejoin:round;stroke-miterlimit:10;} .st13{fill:#444444;} .st14{fill:none;stroke:#404040;stroke-width:4;stroke-miterlimit:10;} .st15{fill:#4ED1A1;stroke:#404040;stroke-width:4;stroke-miterlimit:10;} .st16{fill:none;stroke:#CCCCCC;stroke-width:7;stroke-linecap:round;stroke-linejoin:round;stroke-miterlimit:10;} .st17{fill:#FFFFFF;stroke:#CCCCCC;stroke-width:7;stroke-linecap:round;stroke-linejoin:round;stroke-miterlimit:10;} .st18{fill:none;stroke:#404040;stroke-width:7;stroke-miterlimit:10;} .st19{fill:#B3E3FF;stroke:#404040;stroke-width:7;stroke-miterlimit:10;} .st20{fill:none;stroke:#CCCCCC;stroke-width:8;stroke-linecap:round;stroke-miterlimit:10;} .st21{fill:none;stroke:#404040;stroke-width:8;stroke-linecap:round;stroke-miterlimit:10;} .st22{fill:#FFFFFF;stroke:#404040;stroke-width:4;stroke-linejoin:round;stroke-miterlimit:10;} .st23{fill:#B3E3FF;stroke:#404040;stroke-width:4;stroke-linejoin:round;stroke-miterlimit:10;} .st24{fill:none;stroke:#CCCCCC;stroke-linecap:round;stroke-linejoin:round;stroke-miterlimit:10;} .st25{fill:#999999;} .st26{fill:#4ED1A1;stroke:#404040;stroke-width:4;stroke-linecap:round;stroke-linejoin:round;stroke-miterlimit:10;} .st27{fill:#4CD3D6;stroke:#404040;stroke-width:4;stroke-linejoin:round;stroke-miterlimit:10;} .st28{fill:none;stroke:#59AFE1;stroke-width:4;stroke-miterlimit:10;} .st29{fill:#59AFE1;stroke:#404040;stroke-width:4;stroke-linejoin:round;stroke-miterlimit:10;} .st30{fill:none;stroke:#404040;stroke-width:8;stroke-linecap:round;stroke-linejoin:round;stroke-miterlimit:10;stroke-dasharray:0,30;} .st31{fill:#FFFFFF;stroke:#59AFE1;stroke-width:4;stroke-miterlimit:10;} .st32{fill:#FC8363;stroke:#404040;stroke-width:4;stroke-linecap:round;stroke-linejoin:round;stroke-miterlimit:10;} .st33{fill:#CCCCCC;stroke:#404040;stroke-width:4;stroke-miterlimit:10;} .st34{fill:#FFFFFF;stroke:#6693ED;stroke-width:4;stroke-miterlimit:10;} .st35{fill:none;stroke:#A97CDD;stroke-width:4;stroke-linecap:round;stroke-linejoin:round;stroke-miterlimit:10;} .st36{fill:none;stroke:#B3E3FF;stroke-width:4;stroke-linecap:round;stroke-linejoin:round;stroke-miterlimit:10;} .st37{fill:none;stroke:#4ED1A1;stroke-width:4;stroke-linecap:round;stroke-miterlimit:10;} .st38{fill:none;stroke:#4ED1A1;stroke-width:4;stroke-linecap:round;stroke-linejoin:round;stroke-miterlimit:10;} .st39{fill:#E24B88;stroke:#404040;stroke-width:4;stroke-linecap:round;stroke-linejoin:round;stroke-miterlimit:10;} .st40{fill:none;stroke:#DEEFF8;stroke-width:4;stroke-miterlimit:10;} .st41{fill:none;stroke:#CCCCCC;stroke-width:4;stroke-linecap:round;stroke-linejoin:round;} .st42{fill:none;stroke:#CCCCCC;stroke-width:4;stroke-linecap:round;stroke-linejoin:round;stroke-dasharray:0,14.3051;} .st43{fill:none;stroke:#CCCCCC;stroke-width:4;stroke-linecap:round;stroke-linejoin:round;stroke-dasharray:0,14.1689;} .st44{fill:none;stroke:#CCCCCC;stroke-width:4;stroke-linecap:round;stroke-linejoin:round;stroke-dasharray:0,13.9788;} .st45{fill:none;stroke:#CCCCCC;stroke-width:4;stroke-linecap:round;stroke-linejoin:round;stroke-dasharray:0,14.7877;} .st46{fill:none;stroke:#CCCCCC;stroke-width:4;stroke-linecap:round;stroke-linejoin:round;stroke-dasharray:0,14.9632;} .st47{fill:#B3E3FF;stroke:#404040;stroke-width:4;stroke-linecap:round;stroke-linejoin:round;stroke-miterlimit:10;} .st48{fill:none;stroke:#CCCCCC;stroke-width:4;stroke-linecap:round;stroke-linejoin:round;stroke-dasharray:0,12.543;} .st49{fill:none;stroke:#CCCCCC;stroke-width:4;stroke-linecap:round;stroke-linejoin:round;stroke-dasharray:0,13.6844;} .st50{fill:none;stroke:#CCCCCC;stroke-width:4;stroke-linecap:round;stroke-linejoin:round;stroke-dasharray:0,13.7717;} .st51{fill:none;stroke:#CCCCCC;stroke-width:4;stroke-linecap:round;stroke-linejoin:round;stroke-dasharray:0,13.6492;} .st52{fill:none;stroke:#CCCCCC;stroke-width:4;stroke-linecap:round;stroke-linejoin:round;stroke-dasharray:0,13.907;} .st53{fill:#4CD3D6;stroke:#404040;stroke-width:4;stroke-linecap:round;stroke-linejoin:round;stroke-miterlimit:10;} .st54{fill:none;stroke:#CCCCCC;stroke-width:4;stroke-linecap:round;stroke-linejoin:round;stroke-dasharray:0,14.9858;} .st55{fill:none;stroke:#CCCCCC;stroke-width:4;stroke-linecap:round;stroke-linejoin:round;stroke-dasharray:0,14.0118;} .st56{fill:none;stroke:#CCCCCC;stroke-width:4;stroke-linecap:round;stroke-linejoin:round;stroke-dasharray:0,14.1243;} .st57{fill:none;} .st58{fill:#FFFFFF;stroke:#404040;stroke-width:7;stroke-linecap:round;stroke-linejoin:round;stroke-miterlimit:10;} .st59{fill:#59AFE1;stroke:#404040;stroke-width:7;stroke-linejoin:round;stroke-miterlimit:10;} .st60{fill:#E24B88;stroke:#404040;stroke-width:7;stroke-linecap:round;stroke-linejoin:round;stroke-miterlimit:10;} .st61{fill:none;stroke:#404040;stroke-width:7;stroke-linecap:round;stroke-linejoin:round;stroke-miterlimit:10;} .st62{fill:none;stroke:#CCCCCC;stroke-width:4;stroke-linecap:round;stroke-linejoin:round;stroke-miterlimit:10;} .st63{fill:#FFFFFF;stroke:#CCCCCC;stroke-width:4;stroke-linecap:round;stroke-linejoin:round;stroke-miterlimit:10;} .st64{fill:#F5F5F5;} .st65{fill:#3873AE;} .st66{fill:#75706C;} .st67{fill:none;stroke:#B3E3FF;stroke-width:4;stroke-miterlimit:10;} .st68{fill:#6F6F6F;} .st69{fill:none;stroke:#6F6F6F;stroke-width:2;stroke-miterlimit:10;} .st70{fill:none;stroke:#6F6F6F;stroke-width:3;stroke-miterlimit:10;}</style>
  <g
     id="advanced_x5F_tips_x5F_rewritinghistory_x5F_3"
     transform="translate(-198.60001,-528.4)">
    <path
       class="st11"
       d="m 551.4,624.8 v -23.5 m 10.8,14.8 -10.9,10.9 -10.8,-10.9"
       id="path336"
       inkscape:connector-curvature="0"
       style="fill:none;stroke:#404040;stroke-width:4;stroke-linecap:round;stroke-linejoin:round;stroke-miterlimit:10" />
    <path
       class="st23"
       d="m 503.3,530.4 h 96 v 50 h -96 z"
       id="path338"
       inkscape:connector-curvature="0"
       style="fill:#b3e3ff;stroke:#404040;stroke-width:4;stroke-linejoin:round;stroke-miterlimit:10" />
    <path
       class="st10"
       d="m 537,561.4 v -8.3 l -3.6,8.3 h -1.3 l -3.6,-8.3 v 8.3 H 527 v -10.6 h 2 l 3.8,8.7 3.8,-8.7 h 2 v 10.6 z m 6.5,-4.1 1.9,-0.3 c 0.4,-0.1 0.6,-0.3 0.6,-0.5 0,-0.7 -0.5,-1.3 -1.6,-1.3 -1,0 -1.5,0.6 -1.6,1.5 l -1.4,-0.3 c 0.2,-1.4 1.4,-2.3 3,-2.3 2.2,0 3,1.2 3,2.6 v 3.6 c 0,0.6 0.1,1 0.1,1.2 h -1.4 c 0,-0.2 -0.1,-0.5 -0.1,-1 -0.3,0.5 -1,1.2 -2.3,1.2 -1.5,0 -2.4,-1 -2.4,-2.2 0,-1.3 0.9,-2 2.2,-2.2 z m 2.5,1 V 558 l -2.2,0.3 c -0.6,0.1 -1,0.4 -1,1.1 0,0.5 0.4,1 1.2,1 1,0.1 2,-0.5 2,-2.1 z m 4.9,0.8 c 0.1,0.8 0.7,1.3 1.7,1.3 0.8,0 1.2,-0.4 1.2,-1 0,-0.4 -0.3,-0.8 -0.9,-0.9 l -1.2,-0.3 c -1.1,-0.2 -1.8,-1 -1.8,-2 0,-1.2 1.2,-2.3 2.6,-2.3 2,0 2.6,1.3 2.7,1.9 l -1.2,0.5 c -0.1,-0.4 -0.4,-1.2 -1.5,-1.2 -0.7,0 -1.2,0.5 -1.2,1 0,0.4 0.3,0.8 0.8,0.9 l 1.2,0.3 c 1.3,0.3 2,1.1 2,2.1 0,1 -0.9,2.2 -2.6,2.2 -2,0 -2.8,-1.3 -2.9,-2.1 z m 8.8,-4.9 h 1.6 v 1.3 h -1.6 v 3.8 c 0,0.7 0.3,1 1,1 0.2,0 0.4,0 0.6,-0.1 v 1.2 c -0.1,0 -0.5,0.1 -1,0.1 -1.2,0 -2,-0.8 -2,-2.1 v -4 H 557 v -1.3 h 0.4 c 0.8,0 1.1,-0.5 1.1,-1.1 v -1.2 h 1.3 v 2.4 z m 10.4,5.2 c -0.4,1.3 -1.6,2.3 -3.2,2.3 -1.9,0 -3.6,-1.4 -3.6,-3.9 0,-2.3 1.6,-3.8 3.5,-3.8 2.2,0 3.5,1.5 3.5,3.8 v 0.4 h -5.4 c 0,1.3 1,2.2 2.2,2.2 1.2,0 1.8,-0.6 2,-1.5 z m -1.4,-2.3 c 0,-1 -0.7,-1.8 -2,-1.8 -1.2,0 -1.9,0.9 -2,1.8 z m 8,-1.5 h -0.6 c -1.2,0 -2,0.6 -2,2.2 v 3.6 h -1.4 v -7.2 h 1.4 v 1.3 c 0.5,-1.1 1.4,-1.4 2.2,-1.4 h 0.5 v 1.5 z"
       id="path340"
       inkscape:connector-curvature="0"
       style="fill:#404040" />
    <path
       class="st4"
       d="M 242.6,668 H 530.4"
       id="path342"
       inkscape:connector-curvature="0"
       style="fill:#ffffff;stroke:#404040;stroke-width:4;stroke-linecap:round;stroke-linejoin:round;stroke-miterlimit:10" />
    <circle
       class="st4"
       cx="221.60001"
       cy="668"
       r="21"
       id="circle344"
       style="fill:#ffffff;stroke:#404040;stroke-width:4;stroke-linecap:round;stroke-linejoin:round;stroke-miterlimit:10" />
    <circle
       class="st4"
       cx="331.5"
       cy="668"
       r="21"
       id="circle346"
       style="fill:#ffffff;stroke:#404040;stroke-width:4;stroke-linecap:round;stroke-linejoin:round;stroke-miterlimit:10" />
    <circle
       class="st4"
       cx="441.39999"
       cy="668"
       r="21"
       id="circle348"
       style="fill:#ffffff;stroke:#404040;stroke-width:4;stroke-linecap:round;stroke-linejoin:round;stroke-miterlimit:10" />
    <circle
       class="st29"
       cx="551.40002"
       cy="668"
       r="21"
       id="circle350"
       style="fill:#59afe1;stroke:#404040;stroke-width:4;stroke-linejoin:round;stroke-miterlimit:10" />
    <path
       class="st4"
       d="m 544.8,668 h 13 m -11,-4.6 9.1,9.2 m 0,-9.2 -9.1,9.2 m 4.5,-11.1 v 13"
       id="path352"
       inkscape:connector-curvature="0"
       style="fill:#ffffff;stroke:#404040;stroke-width:4;stroke-linecap:round;stroke-linejoin:round;stroke-miterlimit:10" />
  </g>
</svg>
