<?xml version="1.0" encoding="UTF-8" standalone="no"?>
<svg
   xmlns:dc="http://purl.org/dc/elements/1.1/"
   xmlns:cc="http://creativecommons.org/ns#"
   xmlns:rdf="http://www.w3.org/1999/02/22-rdf-syntax-ns#"
   xmlns:svg="http://www.w3.org/2000/svg"
   xmlns="http://www.w3.org/2000/svg"
   xmlns:sodipodi="http://sodipodi.sourceforge.net/DTD/sodipodi-0.dtd"
   xmlns:inkscape="http://www.inkscape.org/namespaces/inkscape"
   viewBox="0 0 789.20001 320.80002"
   version="1.1"
   id="svg62"
   sodipodi:docname="01.svg"
   width="789.20001"
   height="320.80002"
   inkscape:version="0.92.4 (5da689c313, 2019-01-14)">
  <metadata
     id="metadata68">
    <rdf:RDF>
      <cc:Work
         rdf:about="">
        <dc:format>image/svg+xml</dc:format>
        <dc:type
           rdf:resource="http://purl.org/dc/dcmitype/StillImage" />
      </cc:Work>
    </rdf:RDF>
  </metadata>
  <defs
     id="defs66" />
  <sodipodi:namedview
     pagecolor="#ffffff"
     bordercolor="#666666"
     borderopacity="1"
     objecttolerance="10"
     gridtolerance="10"
     guidetolerance="10"
     inkscape:pageopacity="0"
     inkscape:pageshadow="2"
     inkscape:window-width="956"
     inkscape:window-height="1051"
     id="namedview64"
     showgrid="false"
     inkscape:zoom="0.4125"
     inkscape:cx="399.84848"
     inkscape:cy="160.50001"
     inkscape:window-x="960"
     inkscape:window-y="25"
     inkscape:window-maximized="0"
     inkscape:current-layer="svg62" />
  <style
     id="style2">.st0{display:none;} .st1{display:inline;} .st2{fill:#FFFFFF;} .st3{fill:none;stroke:#9882CE;stroke-width:4;stroke-miterlimit:10;} .st4{fill:#FFFFFF;stroke:#404040;stroke-width:4;stroke-linecap:round;stroke-linejoin:round;stroke-miterlimit:10;} .st5{fill:#FFFFFF;stroke:#404040;stroke-width:4;stroke-miterlimit:10;} .st6{fill:#B3E3FF;stroke:#404040;stroke-width:4;stroke-miterlimit:10;} .st7{fill:#B18BE8;stroke:#404040;stroke-width:4;stroke-miterlimit:10;} .st8{fill:#FFFFFF;stroke:#404040;stroke-width:6;stroke-miterlimit:10;} .st9{fill:#B3E3FF;stroke:#404040;stroke-width:6;stroke-miterlimit:10;} .st10{fill:#404040;} .st11{fill:none;stroke:#404040;stroke-width:4;stroke-linecap:round;stroke-linejoin:round;stroke-miterlimit:10;} .st12{fill:#B18BE8;stroke:#404040;stroke-width:4;stroke-linecap:round;stroke-linejoin:round;stroke-miterlimit:10;} .st13{fill:#444444;} .st14{fill:none;stroke:#404040;stroke-width:4;stroke-miterlimit:10;} .st15{fill:#4ED1A1;stroke:#404040;stroke-width:4;stroke-miterlimit:10;} .st16{fill:none;stroke:#CCCCCC;stroke-width:7;stroke-linecap:round;stroke-linejoin:round;stroke-miterlimit:10;} .st17{fill:#FFFFFF;stroke:#CCCCCC;stroke-width:7;stroke-linecap:round;stroke-linejoin:round;stroke-miterlimit:10;} .st18{fill:none;stroke:#404040;stroke-width:7;stroke-miterlimit:10;} .st19{fill:#B3E3FF;stroke:#404040;stroke-width:7;stroke-miterlimit:10;} .st20{fill:none;stroke:#CCCCCC;stroke-width:8;stroke-linecap:round;stroke-miterlimit:10;} .st21{fill:none;stroke:#404040;stroke-width:8;stroke-linecap:round;stroke-miterlimit:10;} .st22{fill:#FFFFFF;stroke:#404040;stroke-width:4;stroke-linejoin:round;stroke-miterlimit:10;} .st23{fill:#B3E3FF;stroke:#404040;stroke-width:4;stroke-linejoin:round;stroke-miterlimit:10;} .st24{fill:none;stroke:#CCCCCC;stroke-linecap:round;stroke-linejoin:round;stroke-miterlimit:10;} .st25{fill:#999999;} .st26{fill:#4ED1A1;stroke:#404040;stroke-width:4;stroke-linecap:round;stroke-linejoin:round;stroke-miterlimit:10;} .st27{fill:#4CD3D6;stroke:#404040;stroke-width:4;stroke-linejoin:round;stroke-miterlimit:10;} .st28{fill:none;stroke:#59AFE1;stroke-width:4;stroke-miterlimit:10;} .st29{fill:#59AFE1;stroke:#404040;stroke-width:4;stroke-linejoin:round;stroke-miterlimit:10;} .st30{fill:none;stroke:#404040;stroke-width:8;stroke-linecap:round;stroke-linejoin:round;stroke-miterlimit:10;stroke-dasharray:0,30;} .st31{fill:#FFFFFF;stroke:#59AFE1;stroke-width:4;stroke-miterlimit:10;} .st32{fill:#FC8363;stroke:#404040;stroke-width:4;stroke-linecap:round;stroke-linejoin:round;stroke-miterlimit:10;} .st33{fill:#CCCCCC;stroke:#404040;stroke-width:4;stroke-miterlimit:10;} .st34{fill:#FFFFFF;stroke:#6693ED;stroke-width:4;stroke-miterlimit:10;} .st35{fill:none;stroke:#A97CDD;stroke-width:4;stroke-linecap:round;stroke-linejoin:round;stroke-miterlimit:10;} .st36{fill:none;stroke:#B3E3FF;stroke-width:4;stroke-linecap:round;stroke-linejoin:round;stroke-miterlimit:10;} .st37{fill:none;stroke:#4ED1A1;stroke-width:4;stroke-linecap:round;stroke-miterlimit:10;} .st38{fill:none;stroke:#4ED1A1;stroke-width:4;stroke-linecap:round;stroke-linejoin:round;stroke-miterlimit:10;} .st39{fill:#E24B88;stroke:#404040;stroke-width:4;stroke-linecap:round;stroke-linejoin:round;stroke-miterlimit:10;} .st40{fill:none;stroke:#DEEFF8;stroke-width:4;stroke-miterlimit:10;} .st41{fill:none;stroke:#CCCCCC;stroke-width:4;stroke-linecap:round;stroke-linejoin:round;} .st42{fill:none;stroke:#CCCCCC;stroke-width:4;stroke-linecap:round;stroke-linejoin:round;stroke-dasharray:0,14.3051;} .st43{fill:none;stroke:#CCCCCC;stroke-width:4;stroke-linecap:round;stroke-linejoin:round;stroke-dasharray:0,14.1689;} .st44{fill:none;stroke:#CCCCCC;stroke-width:4;stroke-linecap:round;stroke-linejoin:round;stroke-dasharray:0,13.9788;} .st45{fill:none;stroke:#CCCCCC;stroke-width:4;stroke-linecap:round;stroke-linejoin:round;stroke-dasharray:0,14.7877;} .st46{fill:none;stroke:#CCCCCC;stroke-width:4;stroke-linecap:round;stroke-linejoin:round;stroke-dasharray:0,14.9632;} .st47{fill:#B3E3FF;stroke:#404040;stroke-width:4;stroke-linecap:round;stroke-linejoin:round;stroke-miterlimit:10;} .st48{fill:none;stroke:#CCCCCC;stroke-width:4;stroke-linecap:round;stroke-linejoin:round;stroke-dasharray:0,12.543;} .st49{fill:none;stroke:#CCCCCC;stroke-width:4;stroke-linecap:round;stroke-linejoin:round;stroke-dasharray:0,13.6844;} .st50{fill:none;stroke:#CCCCCC;stroke-width:4;stroke-linecap:round;stroke-linejoin:round;stroke-dasharray:0,13.7717;} .st51{fill:none;stroke:#CCCCCC;stroke-width:4;stroke-linecap:round;stroke-linejoin:round;stroke-dasharray:0,13.6492;} .st52{fill:none;stroke:#CCCCCC;stroke-width:4;stroke-linecap:round;stroke-linejoin:round;stroke-dasharray:0,13.907;} .st53{fill:#4CD3D6;stroke:#404040;stroke-width:4;stroke-linecap:round;stroke-linejoin:round;stroke-miterlimit:10;} .st54{fill:none;stroke:#CCCCCC;stroke-width:4;stroke-linecap:round;stroke-linejoin:round;stroke-dasharray:0,14.9858;} .st55{fill:none;stroke:#CCCCCC;stroke-width:4;stroke-linecap:round;stroke-linejoin:round;stroke-dasharray:0,14.0118;} .st56{fill:none;stroke:#CCCCCC;stroke-width:4;stroke-linecap:round;stroke-linejoin:round;stroke-dasharray:0,14.1243;} .st57{fill:none;} .st58{fill:#FFFFFF;stroke:#404040;stroke-width:7;stroke-linecap:round;stroke-linejoin:round;stroke-miterlimit:10;} .st59{fill:#59AFE1;stroke:#404040;stroke-width:7;stroke-linejoin:round;stroke-miterlimit:10;} .st60{fill:#E24B88;stroke:#404040;stroke-width:7;stroke-linecap:round;stroke-linejoin:round;stroke-miterlimit:10;} .st61{fill:none;stroke:#404040;stroke-width:7;stroke-linecap:round;stroke-linejoin:round;stroke-miterlimit:10;} .st62{fill:none;stroke:#CCCCCC;stroke-width:4;stroke-linecap:round;stroke-linejoin:round;stroke-miterlimit:10;} .st63{fill:#FFFFFF;stroke:#CCCCCC;stroke-width:4;stroke-linecap:round;stroke-linejoin:round;stroke-miterlimit:10;} .st64{fill:#F5F5F5;} .st65{fill:#3873AE;} .st66{fill:#75706C;} .st67{fill:none;stroke:#B3E3FF;stroke-width:4;stroke-miterlimit:10;} .st68{fill:#6F6F6F;} .st69{fill:none;stroke:#6F6F6F;stroke-width:2;stroke-miterlimit:10;} .st70{fill:none;stroke:#6F6F6F;stroke-width:3;stroke-miterlimit:10;}</style>
  <path
     class="st10"
     d="m 146.7,28.6 h -1.6 v 4.3 h -1.5 V 22.4 h 4 c 2,0 3.3,1.4 3.3,3.2 0,1.5 -1,2.7 -2.6,3 l 2.5,4.5 h -1.7 z m 0.7,-1.3 c 1.2,0 2,-0.7 2,-1.8 0,-1.1 -0.8,-1.8 -2,-1.8 h -2.2 v 3.6 z m 12.1,3.6 c -0.4,1.3 -1.6,2.3 -3.2,2.3 -1.9,0 -3.6,-1.4 -3.6,-3.9 0,-2.3 1.6,-3.8 3.5,-3.8 2.2,0 3.5,1.5 3.5,3.8 v 0.5 h -5.4 c 0,1.3 1,2.2 2.2,2.2 1.2,0 1.8,-0.6 2,-1.5 z m -1.4,-2.3 c 0,-1 -0.7,-1.8 -2,-1.8 -1.2,0 -1.9,0.9 -2,1.8 z m 4,4.4 V 22.1 h 1.4 V 33 Z M 173,30.9 c -0.4,1.3 -1.6,2.3 -3.2,2.3 -1.9,0 -3.6,-1.4 -3.6,-3.9 0,-2.3 1.6,-3.8 3.5,-3.8 2.2,0 3.5,1.5 3.5,3.8 v 0.5 h -5.4 c 0,1.3 1,2.2 2.2,2.2 1.2,0 1.8,-0.6 2,-1.5 z m -1.5,-2.3 c 0,-1 -0.7,-1.8 -2,-1.8 -1.2,0 -1.9,0.9 -2,1.8 z m 5.8,0.3 2,-0.3 c 0.4,-0.1 0.6,-0.3 0.6,-0.5 0,-0.7 -0.5,-1.3 -1.6,-1.3 -1,0 -1.5,0.6 -1.6,1.5 L 175.4,28 c 0.2,-1.4 1.4,-2.3 3,-2.3 2.2,0 3,1.2 3,2.6 v 3.6 c 0,0.6 0.1,1 0.1,1.2 h -1.4 c 0,-0.2 -0.1,-0.5 -0.1,-1 -0.3,0.5 -1,1.2 -2.3,1.2 -1.5,0 -2.4,-1 -2.4,-2.2 -0.2,-1.3 0.7,-2.1 2,-2.2 z m 2.5,1 v -0.3 l -2.2,0.3 c -0.6,0.1 -1,0.4 -1,1.1 0,0.5 0.5,1 1.2,1 1.1,0 2,-0.5 2,-2.1 z m 4.9,0.8 c 0.1,0.8 0.7,1.3 1.7,1.3 0.8,0 1.2,-0.4 1.2,-1 0,-0.4 -0.3,-0.8 -0.9,-0.9 l -1.2,-0.3 c -1.1,-0.2 -1.8,-1 -1.8,-2 0,-1.2 1.2,-2.3 2.6,-2.3 2,0 2.6,1.3 2.7,1.9 l -1.2,0.5 c -0.1,-0.4 -0.4,-1.2 -1.5,-1.2 -0.7,0 -1.2,0.5 -1.2,1 0,0.4 0.3,0.8 0.8,0.9 l 1.2,0.3 c 1.3,0.3 2,1.1 2,2.1 0,1 -0.9,2.2 -2.6,2.2 -2,0 -2.8,-1.3 -2.9,-2.1 z m 13.2,0.2 c -0.4,1.3 -1.6,2.3 -3.2,2.3 -1.9,0 -3.6,-1.4 -3.6,-3.9 0,-2.3 1.6,-3.8 3.4,-3.8 2.2,0 3.5,1.5 3.5,3.8 v 0.5 h -5.4 c 0,1.3 1,2.2 2.2,2.2 1.2,0 1.8,-0.6 2,-1.5 z m -1.4,-2.3 c 0,-1 -0.7,-1.8 -2,-1.8 -1.2,0 -1.9,0.9 -2,1.8 z"
     id="path4"
     inkscape:connector-curvature="0"
     style="fill:#404040" />
  <path
     class="st12"
     d="m 141.4,2 h 96.2 v 50 h -96.2 z"
     id="path6"
     inkscape:connector-curvature="0"
     style="fill:#b18be8;stroke:#404040;stroke-width:4;stroke-linecap:round;stroke-linejoin:round;stroke-miterlimit:10" />
  <path
     class="st10"
     d="M 161.8,33 V 22.4 h 3.7 c 2.7,0 5.1,1.8 5.1,5.3 0,3.5 -2.4,5.3 -5.1,5.3 z m 3.6,-1.3 c 2,0 3.6,-1.3 3.6,-4 0,-2.7 -1.6,-4 -3.6,-4 h -2.2 v 8 z m 14,-0.8 c -0.4,1.3 -1.6,2.3 -3.2,2.3 -1.9,0 -3.6,-1.4 -3.6,-3.9 0,-2.3 1.6,-3.8 3.4,-3.8 2.2,0 3.5,1.5 3.5,3.8 v 0.5 H 174 c 0,1.3 1,2.2 2.2,2.2 1.2,0 1.8,-0.6 2,-1.5 z M 178,28.6 c 0,-1 -0.7,-1.8 -2,-1.8 -1.2,0 -1.9,0.9 -2,1.8 z m 7.5,4.4 h -1.4 l -2.9,-7.2 h 1.6 l 2.1,5.6 2.1,-5.6 h 1.5 z m 10.7,-2.1 c -0.4,1.3 -1.6,2.3 -3.2,2.3 -1.9,0 -3.6,-1.4 -3.6,-3.9 0,-2.3 1.6,-3.8 3.4,-3.8 2.2,0 3.5,1.5 3.5,3.8 v 0.5 h -5.4 c 0,1.3 1,2.2 2.2,2.2 1.2,0 1.8,-0.6 2,-1.5 z m -1.4,-2.3 c 0,-1 -0.7,-1.8 -2,-1.8 -1.2,0 -1.9,0.9 -2,1.8 z m 4,4.4 V 22.1 h 1.4 V 33 Z m 11.4,-3.6 c 0,2.2 -1.5,3.8 -3.7,3.8 -2.2,0 -3.7,-1.6 -3.7,-3.8 0,-2.2 1.5,-3.8 3.7,-3.8 2.1,-0.1 3.7,1.6 3.7,3.8 z m -1.5,0 c 0,-1.7 -1,-2.6 -2.2,-2.6 -1.2,0 -2.2,0.9 -2.2,2.6 0,1.7 1,2.6 2.2,2.6 1.2,0 2.2,-0.9 2.2,-2.6 z m 4,6.4 v -10 h 1.4 v 1.1 c 0.4,-0.7 1.2,-1.3 2.4,-1.3 2.2,0 3.3,1.7 3.3,3.8 0,2.1 -1.2,3.8 -3.4,3.8 -1.1,0 -2,-0.5 -2.3,-1.2 v 3.8 z m 3.5,-8.9 c -1.3,0 -2.1,1.1 -2.1,2.5 0,1.5 0.9,2.5 2.1,2.5 1.3,0 2.1,-1.1 2.1,-2.5 0.1,-1.5 -0.7,-2.5 -2.1,-2.5 z"
     id="path8"
     inkscape:connector-curvature="0"
     style="fill:#404040" />
  <path
     class="st47"
     d="M 2,2 H 98.2 V 52 H 2 Z"
     id="path10"
     inkscape:connector-curvature="0"
     style="fill:#b3e3ff;stroke:#404040;stroke-width:4;stroke-linecap:round;stroke-linejoin:round;stroke-miterlimit:10" />
  <path
     class="st10"
     d="M 36.7,33 V 24.7 L 33,33 H 31.7 L 28.1,24.7 V 33 H 26.6 V 22.4 h 2 l 3.8,8.7 3.8,-8.7 h 2 V 33 Z m 6.4,-4.1 1.9,-0.3 c 0.4,-0.1 0.6,-0.3 0.6,-0.5 0,-0.7 -0.5,-1.3 -1.6,-1.3 -1,0 -1.5,0.6 -1.6,1.5 L 41,27.9 c 0.2,-1.4 1.4,-2.3 3,-2.3 2.2,0 3,1.2 3,2.6 v 3.6 c 0,0.6 0.1,1 0.1,1.2 h -1.4 c 0,-0.2 -0.1,-0.5 -0.1,-1 -0.3,0.5 -1,1.2 -2.3,1.2 -1.5,0 -2.4,-1 -2.4,-2.2 0,-1.2 0.9,-2 2.2,-2.1 z m 2.5,1 v -0.3 l -2.2,0.3 c -0.6,0.1 -1,0.4 -1,1.1 0,0.5 0.4,1 1.2,1 1.1,0 2,-0.5 2,-2.1 z m 4.9,0.8 c 0.1,0.8 0.7,1.3 1.7,1.3 0.8,0 1.2,-0.4 1.2,-1 0,-0.4 -0.3,-0.8 -0.9,-0.9 l -1.2,-0.3 c -1.1,-0.2 -1.8,-1 -1.8,-2 0,-1.2 1.2,-2.3 2.6,-2.3 2,0 2.6,1.3 2.7,1.9 l -1.2,0.5 c -0.1,-0.4 -0.4,-1.2 -1.5,-1.2 -0.7,0 -1.2,0.5 -1.2,1 0,0.4 0.3,0.8 0.8,0.9 l 1.2,0.3 c 1.3,0.3 2,1.1 2,2.1 0,1 -0.9,2.2 -2.6,2.2 -2,0 -2.8,-1.3 -2.9,-2.1 z m 8.9,-4.9 H 61 v 1.3 h -1.6 v 3.8 c 0,0.7 0.3,1 1,1 0.2,0 0.4,0 0.6,-0.1 V 33 c -0.1,0 -0.5,0.1 -1,0.1 -1.2,0 -2,-0.8 -2,-2.1 V 27 H 56.6 V 25.7 H 57 c 0.8,0 1.1,-0.5 1.1,-1.1 v -1.2 h 1.3 z m 10.3,5.1 c -0.4,1.3 -1.6,2.3 -3.2,2.3 -1.9,0 -3.6,-1.4 -3.6,-3.9 0,-2.3 1.6,-3.8 3.5,-3.8 2.2,0 3.5,1.5 3.5,3.8 v 0.5 h -5.4 c 0,1.3 1,2.2 2.2,2.2 1.2,0 1.8,-0.6 2,-1.5 z m -1.4,-2.3 c 0,-1 -0.7,-1.8 -2,-1.8 -1.2,0 -1.9,0.9 -2,1.8 z m 8,-1.4 h -0.6 c -1.2,0 -2,0.6 -2,2.2 V 33 h -1.4 v -7.2 h 1.4 v 1.3 c 0.5,-1.1 1.4,-1.4 2.2,-1.4 h 0.5 v 1.5 z"
     id="path12"
     inkscape:connector-curvature="0"
     style="fill:#404040" />
  <path
     class="st14"
     d="M 771.4,303 H 175"
     id="path14"
     inkscape:connector-curvature="0"
     style="fill:none;stroke:#404040;stroke-width:4;stroke-miterlimit:10" />
  <circle
     class="st7"
     cx="480.39999"
     cy="303"
     r="15.8"
     id="circle16"
     style="fill:#b18be8;stroke:#404040;stroke-width:4;stroke-miterlimit:10" />
  <circle
     class="st7"
     cx="311"
     cy="303"
     r="15.8"
     id="circle18"
     style="fill:#b18be8;stroke:#404040;stroke-width:4;stroke-miterlimit:10" />
  <circle
     class="st7"
     cx="771.40002"
     cy="303"
     r="15.8"
     id="circle20"
     style="fill:#b18be8;stroke:#404040;stroke-width:4;stroke-miterlimit:10" />
  <path
     class="st56"
     d="M 65.9,303 H 16.5"
     id="path22"
     inkscape:connector-curvature="0"
     style="fill:none;stroke:#cccccc;stroke-width:4;stroke-linecap:round;stroke-linejoin:round;stroke-dasharray:0, 14.1243" />
  <path
     class="st41"
     d="M 9.5,303 M 771.4,241.5"
     id="path24"
     inkscape:connector-curvature="0"
     style="fill:none;stroke:#cccccc;stroke-width:4;stroke-linecap:round;stroke-linejoin:round" />
  <path
     class="st46"
     d="M 756.4,241.5 H 674.1"
     id="path26"
     inkscape:connector-curvature="0"
     style="fill:none;stroke:#cccccc;stroke-width:4;stroke-linecap:round;stroke-linejoin:round;stroke-dasharray:0, 14.9632" />
  <path
     class="st14"
     d="m 80.1,272.2 c 0,-17 -13.8,-30.7 -30.8,-30.7 m 30.8,30.7"
     id="path28"
     inkscape:connector-curvature="0"
     style="fill:none;stroke:#404040;stroke-width:4;stroke-miterlimit:10" />
  <path
     class="st14"
     d="M 640.2,241.5 H 34.4"
     id="path30"
     inkscape:connector-curvature="0"
     style="fill:none;stroke:#404040;stroke-width:4;stroke-miterlimit:10" />
  <circle
     class="st6"
     cx="18.6"
     cy="241.5"
     r="15.8"
     id="circle32"
     style="fill:#b3e3ff;stroke:#404040;stroke-width:4;stroke-miterlimit:10" />
  <circle
     class="st6"
     cx="311"
     cy="241.5"
     r="15.8"
     id="circle34"
     style="fill:#b3e3ff;stroke:#404040;stroke-width:4;stroke-miterlimit:10" />
  <circle
     class="st6"
     cx="640.20001"
     cy="241.5"
     r="15.8"
     id="circle36"
     style="fill:#b3e3ff;stroke:#404040;stroke-width:4;stroke-miterlimit:10" />
  <path
     class="st47"
     d="m 44.2,136 h 42.5 v 37.5 H 44.2 Z"
     id="path38"
     inkscape:connector-curvature="0"
     style="fill:#b3e3ff;stroke:#404040;stroke-width:4;stroke-linecap:round;stroke-linejoin:round;stroke-miterlimit:10" />
  <path
     class="st10"
     d="M 57.7,159.2 H 56.5 L 54,152.9 h 1.4 l 1.8,4.8 1.8,-4.8 h 1.3 z m 4.7,-7.2 c 0.5,-0.8 1.4,-1.4 2.6,-1.4 1.2,0 2,0.5 2.6,1.4 0.6,0.8 0.8,1.9 0.8,3.1 0,1.2 -0.2,2.2 -0.8,3.1 -0.5,0.8 -1.4,1.4 -2.6,1.4 -1.2,0 -2,-0.5 -2.6,-1.4 -0.6,-0.8 -0.8,-1.9 -0.8,-3.1 0,-1.2 0.3,-2.3 0.8,-3.1 z m 1.3,5.8 c 0.3,0.3 0.7,0.5 1.3,0.5 0.6,0 1,-0.2 1.3,-0.5 0.5,-0.5 0.7,-1.4 0.7,-2.7 0,-1.3 -0.2,-2.2 -0.7,-2.7 -0.3,-0.3 -0.7,-0.5 -1.3,-0.5 -0.6,0 -1,0.2 -1.3,0.5 -0.5,0.5 -0.7,1.4 -0.7,2.7 0,1.3 0.2,2.1 0.7,2.7 z m 7.2,-0.3 c 0.5,0 0.9,0.4 0.9,0.9 0,0.5 -0.4,0.9 -0.9,0.9 -0.5,0 -0.9,-0.4 -0.9,-0.9 0,-0.5 0.4,-0.9 0.9,-0.9 z m 4,1.7 v -5.9 h -2 v -0.9 c 1.2,0 2,-0.7 2.2,-1.6 h 1.1 v 8.4 z"
     id="path40"
     inkscape:connector-curvature="0"
     style="fill:#404040" />
  <path
     class="st11"
     d="M 65.5,207.6 V 190 m 8.1,11.1 -8.1,8.2 -8.2,-8.2"
     id="path42"
     inkscape:connector-curvature="0"
     style="fill:none;stroke:#404040;stroke-width:4;stroke-linecap:round;stroke-linejoin:round;stroke-miterlimit:10" />
  <path
     class="st47"
     d="m 289.7,136 h 42.5 v 37.5 h -42.5 z"
     id="path44"
     inkscape:connector-curvature="0"
     style="fill:#b3e3ff;stroke:#404040;stroke-width:4;stroke-linecap:round;stroke-linejoin:round;stroke-miterlimit:10" />
  <path
     class="st10"
     d="m 301.6,159.2 h -1.2 l -2.5,-6.3 h 1.4 l 1.8,4.8 1.8,-4.8 h 1.3 z m 4.7,-7.2 c 0.5,-0.8 1.4,-1.4 2.6,-1.4 1.2,0 2,0.5 2.6,1.4 0.6,0.8 0.8,1.9 0.8,3.1 0,1.2 -0.2,2.2 -0.8,3.1 -0.5,0.8 -1.4,1.4 -2.6,1.4 -1.2,0 -2,-0.5 -2.6,-1.4 -0.6,-0.8 -0.8,-1.9 -0.8,-3.1 0,-1.2 0.3,-2.3 0.8,-3.1 z m 1.3,5.8 c 0.3,0.3 0.7,0.5 1.3,0.5 0.6,0 1,-0.2 1.3,-0.5 0.5,-0.5 0.7,-1.4 0.7,-2.7 0,-1.3 -0.2,-2.2 -0.7,-2.7 -0.3,-0.3 -0.7,-0.5 -1.3,-0.5 -0.6,0 -1,0.2 -1.3,0.5 -0.5,0.5 -0.7,1.4 -0.7,2.7 0,1.3 0.2,2.1 0.7,2.7 z m 7.2,-0.3 c 0.5,0 0.9,0.4 0.9,0.9 0,0.5 -0.4,0.9 -0.9,0.9 -0.5,0 -0.9,-0.4 -0.9,-0.9 0,-0.5 0.4,-0.9 0.9,-0.9 z m 3.1,-3.8 v -0.3 c 0,-1.4 1.1,-2.7 2.9,-2.7 1.8,0 2.8,1.2 2.8,2.6 0,1.1 -0.6,2 -1.6,2.6 l -1.7,1.1 c -0.5,0.3 -0.9,0.7 -1,1.2 h 4.3 v 1.2 h -5.9 c 0,-1.4 0.6,-2.4 2,-3.4 l 1.4,-0.9 c 0.8,-0.5 1.2,-1.1 1.2,-1.8 0,-0.8 -0.5,-1.5 -1.6,-1.5 -1.1,0 -1.6,0.8 -1.6,1.7 v 0.4 z"
     id="path46"
     inkscape:connector-curvature="0"
     style="fill:#404040" />
  <path
     class="st11"
     d="M 311,207.6 V 190 m 8.1,11.1 -8.1,8.2 -8.2,-8.2"
     id="path48"
     inkscape:connector-curvature="0"
     style="fill:none;stroke:#404040;stroke-width:4;stroke-linecap:round;stroke-linejoin:round;stroke-miterlimit:10" />
  <path
     class="st47"
     d="m 618.9,136 h 42.5 v 37.5 h -42.5 z"
     id="path50"
     inkscape:connector-curvature="0"
     style="fill:#b3e3ff;stroke:#404040;stroke-width:4;stroke-linecap:round;stroke-linejoin:round;stroke-miterlimit:10" />
  <path
     class="st10"
     d="m 631.9,159.2 h -1.2 l -2.5,-6.3 h 1.4 l 1.8,4.8 1.8,-4.8 h 1.3 z m 5.7,0 v -5.9 h -2 v -0.9 c 1.2,0 2,-0.7 2.2,-1.6 h 1.1 v 8.4 z m 4.5,-1.7 c 0.5,0 0.9,0.4 0.9,0.9 0,0.5 -0.4,0.9 -0.9,0.9 -0.5,0 -0.9,-0.4 -0.9,-0.9 0,-0.5 0.4,-0.9 0.9,-0.9 z m 3.7,-5.5 c 0.5,-0.8 1.4,-1.4 2.6,-1.4 1.2,0 2,0.5 2.6,1.4 0.6,0.8 0.8,1.9 0.8,3.1 0,1.2 -0.2,2.2 -0.8,3.1 -0.5,0.8 -1.4,1.4 -2.6,1.4 -1.2,0 -2,-0.5 -2.6,-1.4 -0.6,-0.8 -0.8,-1.9 -0.8,-3.1 0,-1.2 0.2,-2.3 0.8,-3.1 z m 1.2,5.8 c 0.3,0.3 0.7,0.5 1.3,0.5 0.6,0 1,-0.2 1.3,-0.5 0.5,-0.5 0.7,-1.4 0.7,-2.7 0,-1.3 -0.2,-2.2 -0.7,-2.7 -0.3,-0.3 -0.7,-0.5 -1.3,-0.5 -0.6,0 -1,0.2 -1.3,0.5 -0.5,0.5 -0.7,1.4 -0.7,2.7 0,1.3 0.2,2.1 0.7,2.7 z"
     id="path52"
     inkscape:connector-curvature="0"
     style="fill:#404040" />
  <path
     class="st11"
     d="M 640.2,207.6 V 190 m 8.1,11.1 -8.1,8.2 -8.2,-8.2"
     id="path54"
     inkscape:connector-curvature="0"
     style="fill:none;stroke:#404040;stroke-width:4;stroke-linecap:round;stroke-linejoin:round;stroke-miterlimit:10" />
  <path
     class="st14"
     d="m 80.1,272.2 c 0,17 13.8,30.8 30.8,30.8 h 95.7"
     id="path56"
     inkscape:connector-curvature="0"
     style="fill:none;stroke:#404040;stroke-width:4;stroke-miterlimit:10" />
  <circle
     class="st7"
     cx="190.7"
     cy="303"
     r="15.7"
     id="circle58"
     style="fill:#b18be8;stroke:#404040;stroke-width:4;stroke-miterlimit:10" />
  <circle
     class="st7"
     cx="143.89999"
     cy="303"
     r="15.8"
     id="circle60"
     style="fill:#b18be8;stroke:#404040;stroke-width:4;stroke-miterlimit:10" />
</svg>
