<svg id="Layer_1" xmlns="http://www.w3.org/2000/svg" viewBox="0 0 800 500"><style>.st0{fill:none;stroke:#414141;stroke-width:4;stroke-linecap:round;stroke-linejoin:round;stroke-miterlimit:10;} .st1{fill:#FFFFFF;stroke:#414141;stroke-width:4;stroke-linecap:round;stroke-linejoin:round;stroke-miterlimit:10;} .st2{fill:#59ADDF;stroke:#414141;stroke-width:4;stroke-linejoin:round;stroke-miterlimit:10;} .st3{fill:#B5E1F8;stroke:#414141;stroke-width:4;stroke-linejoin:round;stroke-miterlimit:10;} .st4{fill:#414141;}</style><path class="st0" d="M248.7 310.3L520.1 310.3"/><circle class="st1" cx="332.2" cy="310.3" r="21"/><circle class="st1" cx="249" cy="310.3" r="21"/><circle class="st1" cx="415.8" cy="310.3" r="21"/><circle class="st2" cx="499.1" cy="310.3" r="21"/><path class="st0" d="M499.6,265.5V242 M510.5,256.8l-10.9,10.8l-10.8-10.8"/><path class="st3" d="M428.6,168.7H572v50H428.6V168.7z"/><path class="st4" d="M485.5,198.9v-8.3l-3.6,8.3h-1.4l-3.6-8.3v8.3h-1.5v-10.6h2l3.8,8.7l3.8-8.7h2v10.6H485.5z"/><path class="st4" d="M491.9,194.8l2-0.3c0.4-0.1,0.6-0.3,0.6-0.5c0-0.7-0.5-1.3-1.6-1.3c-1,0-1.5,0.6-1.6,1.5l-1.3-0.3 c0.1-1.4,1.4-2.3,3-2.3c2.2,0,3,1.2,3,2.6v3.6c0,0.6,0.1,1,0.1,1.2h-1.4c0-0.2-0.1-0.5-0.1-1c-0.3,0.5-1,1.2-2.3,1.2 c-1.5,0-2.4-1-2.4-2.2C489.7,195.7,490.7,194.9,491.9,194.8z M494.4,195.8v-0.3l-2.2,0.3c-0.6,0.1-1.1,0.4-1.1,1.1 c0,0.5,0.5,1,1.2,1C493.5,197.9,494.4,197.4,494.4,195.8z"/><path class="st4" d="M499.4,196.6c0.1,0.8,0.7,1.4,1.7,1.4c0.8,0,1.2-0.5,1.2-1c0-0.4-0.3-0.8-0.9-0.9l-1.2-0.3 c-1.1-0.2-1.8-1-1.8-2c0-1.2,1.2-2.3,2.6-2.3c2,0,2.6,1.3,2.7,1.9l-1.2,0.5c-0.1-0.4-0.4-1.2-1.5-1.2c-0.7,0-1.2,0.5-1.2,1 c0,0.4,0.3,0.8,0.8,0.9l1.2,0.3c1.3,0.3,2,1.1,2,2.1c0,1-0.9,2.2-2.6,2.2c-2,0-2.8-1.3-2.9-2.1L499.4,196.6z"/><path class="st4" d="M508.2,191.7h1.6v1.3h-1.6v3.8c0,0.7,0.3,1,1,1c0.2,0,0.4,0,0.6-0.1v1.2c-0.1,0-0.5,0.1-1,0.1 c-1.2,0-2-0.8-2-2.1v-4h-1.4v-1.3h0.4c0.8,0,1.1-0.5,1.1-1.1v-1.2h1.3V191.7z"/><path class="st4" d="M518.6,196.8c-0.4,1.3-1.6,2.3-3.2,2.3c-1.9,0-3.6-1.4-3.6-3.9c0-2.3,1.6-3.8,3.4-3.8c2.2,0,3.5,1.5,3.5,3.8 c0,0.2,0,0.4,0,0.4h-5.4c0,1.3,1,2.2,2.2,2.2c1.2,0,1.8-0.6,2-1.5L518.6,196.8z M517.2,194.5c0-1-0.7-1.8-2-1.8 c-1.2,0-1.9,0.9-2,1.8H517.2z"/><path class="st4" d="M525.2,193.1c-0.2,0-0.4,0-0.6,0c-1.2,0-2,0.6-2,2.2v3.6h-1.4v-7.2h1.4v1.3c0.5-1.1,1.4-1.4,2.2-1.4 c0.2,0,0.4,0,0.5,0V193.1z"/></svg>