<svg id="Layer_1" xmlns="http://www.w3.org/2000/svg" viewBox="0 0 800 500"><style>.st0{fill:none;stroke:#414141;stroke-width:4;stroke-linecap:round;stroke-linejoin:round;stroke-miterlimit:10;} .st1{fill:#FFFFFF;stroke:#414141;stroke-width:4;stroke-linecap:round;stroke-linejoin:round;stroke-miterlimit:10;} .st2{fill:#59ADDF;stroke:#414141;stroke-width:4;stroke-linejoin:round;stroke-miterlimit:10;} .st3{fill:#61C19B;stroke:#414141;stroke-width:4;stroke-linecap:round;stroke-linejoin:round;stroke-miterlimit:10;} .st4{fill:#414141;} .st5{fill:#B5E1F8;stroke:#414141;stroke-width:4;stroke-linejoin:round;stroke-miterlimit:10;}</style><path class="st0" d="M460,250c0,22.6-18.4,41-41,41H216.9 M460,250c0-22.6,18.4-41,41-41h51.7"/><circle class="st1" cx="362.4" cy="291" r="21"/><circle class="st1" cx="279.2" cy="291" r="21"/><circle class="st1" cx="195.9" cy="291" r="21"/><circle class="st2" cx="552.1" cy="209" r="21"/><path class="st0" d="M552.7,166.5V143 M563.6,157.8l-10.9,10.8l-10.8-10.8"/><path class="st3" d="M493,69.6h119.4v50H493V69.6z"/><path class="st4" d="M506.6,100.7V90.1h6.5v1.4h-5v3.4h4.5v1.4h-4.5v4.5H506.6z"/><path class="st4" d="M517.4,100.9c-1.7,0-2.7-1.3-2.7-2.9v-4.5h1.4v4.3c0,1,0.5,1.9,1.6,1.9c1.1,0,1.7-0.8,1.7-1.8v-4.3h1.4v5.9 c0,0.6,0,1.1,0.1,1.3h-1.3c0-0.2-0.1-0.6-0.1-0.9C519.2,100.6,518.3,100.9,517.4,100.9z"/><path class="st4" d="M525.9,93.5h1.6v1.3h-1.6v3.8c0,0.7,0.3,1,1,1c0.2,0,0.4,0,0.6-0.1v1.2c-0.1,0-0.5,0.1-1,0.1 c-1.2,0-2-0.8-2-2.1v-4h-1.4v-1.3h0.4c0.8,0,1.1-0.5,1.1-1.1v-1.2h1.3V93.5z"/><path class="st4" d="M532.7,100.9c-1.7,0-2.7-1.3-2.7-2.9v-4.5h1.4v4.3c0,1,0.5,1.9,1.6,1.9c1.1,0,1.7-0.8,1.7-1.8v-4.3h1.4v5.9 c0,0.6,0,1.1,0.1,1.3h-1.3c0-0.2-0.1-0.6-0.1-0.9C534.5,100.6,533.6,100.9,532.7,100.9z"/><path class="st4" d="M543.4,94.9c-0.2,0-0.4,0-0.6,0c-1.2,0-2,0.6-2,2.2v3.6h-1.4v-7.2h1.4v1.3c0.5-1.1,1.4-1.4,2.2-1.4 c0.2,0,0.4,0,0.5,0V94.9z"/><path class="st4" d="M551.8,98.7c-0.4,1.3-1.6,2.3-3.2,2.3c-1.9,0-3.6-1.4-3.6-3.9c0-2.3,1.6-3.8,3.4-3.8c2.2,0,3.5,1.5,3.5,3.8 c0,0.2,0,0.4,0,0.5h-5.4c0,1.3,1,2.2,2.2,2.2c1.2,0,1.8-0.6,2-1.5L551.8,98.7z M550.4,96.4c0-1-0.7-1.8-2-1.8 c-1.2,0-1.9,0.9-2,1.8H550.4z"/><path class="st4" d="M557.6,97v-1.2h4.1V97H557.6z"/><path class="st4" d="M564.3,103.6V93.5h1.4v1.1c0.4-0.7,1.2-1.3,2.4-1.3c2.2,0,3.3,1.7,3.3,3.8c0,2.1-1.2,3.8-3.4,3.8 c-1.1,0-1.9-0.5-2.3-1.2v3.8H564.3z M567.9,94.6c-1.3,0-2.1,1.1-2.1,2.5c0,1.5,0.9,2.5,2.1,2.5c1.3,0,2.1-1.1,2.1-2.5 C570,95.7,569.2,94.6,567.9,94.6z"/><path class="st4" d="M574,100.7V89.9h1.4v10.9H574z"/><path class="st4" d="M580.3,96.6l2-0.3c0.4-0.1,0.6-0.3,0.6-0.5c0-0.7-0.5-1.3-1.6-1.3c-1,0-1.5,0.6-1.6,1.5l-1.3-0.3 c0.1-1.4,1.4-2.3,3-2.3c2.2,0,3,1.2,3,2.6v3.6c0,0.6,0.1,1,0.1,1.2h-1.4c0-0.2-0.1-0.5-0.1-1c-0.3,0.5-1,1.2-2.3,1.2 c-1.5,0-2.4-1-2.4-2.2C578.1,97.5,579,96.8,580.3,96.6z M582.8,97.6v-0.3l-2.2,0.3c-0.6,0.1-1.1,0.4-1.1,1.1c0,0.5,0.5,1,1.2,1 C581.9,99.8,582.8,99.2,582.8,97.6z"/><path class="st4" d="M588.5,100.7h-1.4v-7.2h1.4v1c0.5-0.9,1.4-1.2,2.2-1.2c1.7,0,2.6,1.2,2.6,2.8v4.6h-1.4v-4.3 c0-1-0.4-1.8-1.7-1.8c-1.1,0-1.7,0.9-1.7,2V100.7z"/><path class="st4" d="M596.9,98.4c0.1,0.8,0.7,1.4,1.7,1.4c0.8,0,1.2-0.5,1.2-1c0-0.5-0.3-0.8-0.9-0.9l-1.2-0.3 c-1.1-0.2-1.8-1-1.8-2c0-1.2,1.2-2.3,2.6-2.3c2,0,2.6,1.3,2.7,1.9l-1.2,0.5c-0.1-0.4-0.4-1.2-1.5-1.2c-0.7,0-1.2,0.5-1.2,1 c0,0.4,0.3,0.8,0.8,0.9l1.2,0.3c1.3,0.3,2,1.1,2,2.1c0,1-0.9,2.2-2.6,2.2c-2,0-2.8-1.3-2.9-2.1L596.9,98.4z"/><path class="st0" d="M552.7 291L419 291"/><circle class="st1" cx="552.1" cy="291" r="21"/><path class="st5" d="M481.7,380.4h143.4v50H481.7V380.4z"/><path class="st4" d="M509.8,411.7v-8.3l-3.6,8.3h-1.4l-3.6-8.3v8.3h-1.5v-10.6h2l3.8,8.7l3.8-8.7h2v10.6H509.8z"/><path class="st4" d="M516.2,407.6l2-0.3c0.4-0.1,0.6-0.3,0.6-0.5c0-0.7-0.5-1.3-1.6-1.3c-1,0-1.5,0.6-1.6,1.5l-1.3-0.3 c0.1-1.4,1.4-2.3,3-2.3c2.2,0,3,1.2,3,2.6v3.6c0,0.6,0.1,1,0.1,1.2h-1.4c0-0.2-0.1-0.5-0.1-1c-0.3,0.5-1,1.2-2.3,1.2 c-1.5,0-2.4-1-2.4-2.2C514.1,408.5,515,407.8,516.2,407.6z M518.7,408.6v-0.3l-2.2,0.3c-0.6,0.1-1.1,0.4-1.1,1.1 c0,0.5,0.5,1,1.2,1C517.8,410.7,518.7,410.2,518.7,408.6z"/><path class="st4" d="M523.7,409.4c0.1,0.8,0.7,1.4,1.7,1.4c0.8,0,1.2-0.5,1.2-1c0-0.5-0.3-0.8-0.9-0.9l-1.2-0.3 c-1.1-0.2-1.8-1-1.8-2c0-1.2,1.2-2.3,2.6-2.3c2,0,2.6,1.3,2.7,1.9l-1.2,0.5c-0.1-0.4-0.4-1.2-1.5-1.2c-0.7,0-1.2,0.5-1.2,1 c0,0.4,0.3,0.8,0.8,0.9l1.2,0.3c1.3,0.3,2,1.1,2,2.1c0,1-0.9,2.2-2.6,2.2c-2,0-2.8-1.3-2.9-2.1L523.7,409.4z"/><path class="st4" d="M532.5,404.5h1.6v1.3h-1.6v3.8c0,0.7,0.3,1,1,1c0.2,0,0.4,0,0.6-0.1v1.2c-0.1,0-0.5,0.1-1,0.1 c-1.2,0-2-0.8-2-2.1v-4h-1.4v-1.3h0.4c0.8,0,1.1-0.5,1.1-1.1v-1.2h1.3V404.5z"/><path class="st4" d="M542.9,409.6c-0.4,1.3-1.6,2.3-3.2,2.3c-1.9,0-3.6-1.4-3.6-3.9c0-2.3,1.6-3.8,3.4-3.8c2.2,0,3.5,1.5,3.5,3.8 c0,0.2,0,0.4,0,0.5h-5.4c0,1.3,1,2.2,2.2,2.2c1.2,0,1.8-0.6,2-1.5L542.9,409.6z M541.5,407.4c0-1-0.7-1.8-2-1.8 c-1.2,0-1.9,0.9-2,1.8H541.5z"/><path class="st4" d="M549.5,405.9c-0.2,0-0.4,0-0.6,0c-1.2,0-2,0.6-2,2.2v3.6h-1.4v-7.2h1.4v1.3c0.5-1.1,1.4-1.4,2.2-1.4 c0.2,0,0.4,0,0.5,0V405.9z"/><path class="st4" d="M556.3,411.7v-10.9h1.4v4.7c0.3-0.6,1.2-1.2,2.4-1.2c2.2,0,3.3,1.7,3.3,3.8c0,2.1-1.2,3.8-3.4,3.8 c-1.1,0-1.9-0.5-2.3-1.2v1H556.3z M559.8,405.5c-1.2,0-2.1,1-2.1,2.5c0,1.6,0.9,2.6,2.1,2.6c1.3,0,2.1-1,2.1-2.6 C561.9,406.5,561.1,405.5,559.8,405.5z"/><path class="st4" d="M569.9,405.9c-0.2,0-0.4,0-0.6,0c-1.2,0-2,0.6-2,2.2v3.6h-1.4v-7.2h1.4v1.3c0.5-1.1,1.4-1.4,2.2-1.4 c0.2,0,0.4,0,0.5,0V405.9z"/><path class="st4" d="M573.9,407.6l2-0.3c0.4-0.1,0.6-0.3,0.6-0.5c0-0.7-0.5-1.3-1.6-1.3c-1,0-1.5,0.6-1.6,1.5l-1.3-0.3 c0.1-1.4,1.4-2.3,3-2.3c2.2,0,3,1.2,3,2.6v3.6c0,0.6,0.1,1,0.1,1.2h-1.4c0-0.2-0.1-0.5-0.1-1c-0.3,0.5-1,1.2-2.3,1.2 c-1.5,0-2.4-1-2.4-2.2C571.7,408.5,572.7,407.8,573.9,407.6z M576.4,408.6v-0.3l-2.2,0.3c-0.6,0.1-1.1,0.4-1.1,1.1 c0,0.5,0.5,1,1.2,1C575.5,410.7,576.4,410.2,576.4,408.6z"/><path class="st4" d="M582.2,411.7h-1.4v-7.2h1.4v1c0.5-0.9,1.4-1.2,2.2-1.2c1.7,0,2.6,1.2,2.6,2.8v4.6h-1.4v-4.3 c0-1-0.4-1.8-1.7-1.8c-1.1,0-1.7,0.9-1.7,2V411.7z"/><path class="st4" d="M590.8,408.1c0,1.7,1,2.5,2.2,2.5c1.3,0,1.8-0.9,2-1.5l1.2,0.5c-0.3,1-1.4,2.2-3.3,2.2 c-2.1,0-3.6-1.6-3.6-3.8c0-2.2,1.6-3.8,3.6-3.8c1.9,0,2.9,1.2,3.2,2.3l-1.3,0.5c-0.2-0.7-0.7-1.5-1.9-1.5 C591.8,405.6,590.8,406.4,590.8,408.1z"/><path class="st4" d="M600,411.7h-1.4v-10.9h1.4v4.5c0.5-0.8,1.4-1,2.2-1c1.7,0,2.6,1.2,2.6,2.8v4.6h-1.4v-4.3c0-1-0.4-1.8-1.7-1.8 c-1.1,0-1.7,0.8-1.7,1.9V411.7z"/><path class="st0" d="M552.8,333.8v23.5 M541.9,342.5l10.9-10.8l10.8,10.8"/></svg>