<svg id="Layer_1" xmlns="http://www.w3.org/2000/svg" viewBox="0 0 800 500"><style>.st0{fill:none;stroke:#414141;stroke-width:4;stroke-linecap:round;stroke-linejoin:round;stroke-miterlimit:10;} .st1{fill:#FFFFFF;stroke:#414141;stroke-width:4;stroke-linecap:round;stroke-linejoin:round;stroke-miterlimit:10;} .st2{fill:#59ADDF;stroke:#414141;stroke-width:4;stroke-linejoin:round;stroke-miterlimit:10;} .st3{fill:#61C19B;stroke:#414141;stroke-width:4;stroke-linecap:round;stroke-linejoin:round;stroke-miterlimit:10;} .st4{fill:#414141;} .st5{fill:#B5E1F8;stroke:#414141;stroke-width:4;stroke-linejoin:round;stroke-miterlimit:10;}</style><path class="st0" d="M538.2,268.2h41.2 M424.5,309.2c0,22.6-18.4,41-41,41H181.4 M424.5,309.2c0-22.6,18.4-41,41-41h30.7"/><circle class="st1" cx="326.9" cy="350.2" r="21"/><circle class="st1" cx="243.7" cy="350.2" r="21"/><circle class="st1" cx="160.4" cy="350.2" r="21"/><circle class="st1" cx="517.2" cy="268.2" r="21"/><circle class="st2" cx="600.4" cy="268.2" r="21"/><path class="st0" d="M326.9,307.6v-23.5 M337.8,298.9l-10.9,10.8l-10.8-10.8"/><path class="st0" d="M600.9,225.6v-23.5 M611.8,216.9l-10.9,10.8l-10.8-10.8"/><path class="st3" d="M541.2,128.8h119.4v50H541.2V128.8z"/><path class="st4" d="M554.9,159.9v-10.6h6.5v1.4h-5v3.4h4.5v1.4h-4.5v4.5H554.9z"/><path class="st4" d="M565.7,160.1c-1.7,0-2.7-1.3-2.7-2.9v-4.5h1.4v4.3c0,1,0.5,1.9,1.6,1.9c1.1,0,1.7-0.8,1.7-1.8v-4.3h1.4v5.9 c0,0.6,0,1.1,0.1,1.3h-1.3c0-0.2-0.1-0.6-0.1-0.9C567.4,159.8,566.5,160.1,565.7,160.1z"/><path class="st4" d="M574.2,152.7h1.6v1.3h-1.6v3.8c0,0.7,0.3,1,1,1c0.2,0,0.4,0,0.6-0.1v1.2c-0.1,0-0.5,0.1-1,0.1 c-1.2,0-2-0.8-2-2.1v-4h-1.4v-1.3h0.4c0.8,0,1.1-0.5,1.1-1.1v-1.2h1.3V152.7z"/><path class="st4" d="M581,160.1c-1.7,0-2.7-1.3-2.7-2.9v-4.5h1.4v4.3c0,1,0.5,1.9,1.6,1.9c1.1,0,1.7-0.8,1.7-1.8v-4.3h1.4v5.9 c0,0.6,0,1.1,0.1,1.3h-1.3c0-0.2-0.1-0.6-0.1-0.9C582.7,159.8,581.8,160.1,581,160.1z"/><path class="st4" d="M591.6,154.1c-0.2,0-0.4,0-0.6,0c-1.2,0-2,0.6-2,2.2v3.6h-1.4v-7.2h1.4v1.3c0.5-1.1,1.4-1.4,2.2-1.4 c0.2,0,0.4,0,0.5,0V154.1z"/><path class="st4" d="M600.1,157.8c-0.4,1.3-1.6,2.3-3.2,2.3c-1.9,0-3.6-1.4-3.6-3.9c0-2.3,1.6-3.8,3.4-3.8c2.2,0,3.5,1.5,3.5,3.8 c0,0.2,0,0.4,0,0.5h-5.4c0,1.3,1,2.2,2.2,2.2c1.2,0,1.8-0.6,2-1.5L600.1,157.8z M598.7,155.6c0-1-0.7-1.8-2-1.8 c-1.2,0-1.9,0.9-2,1.8H598.7z"/><path class="st4" d="M605.9,156.2V155h4.1v1.2H605.9z"/><path class="st4" d="M612.6,162.8v-10.1h1.4v1.1c0.4-0.7,1.2-1.3,2.4-1.3c2.2,0,3.3,1.7,3.3,3.8c0,2.1-1.2,3.8-3.4,3.8 c-1.1,0-1.9-0.5-2.3-1.2v3.8H612.6z M616.1,153.8c-1.3,0-2.1,1.1-2.1,2.5c0,1.5,0.9,2.5,2.1,2.5c1.3,0,2.1-1.1,2.1-2.5 C618.2,154.8,617.4,153.8,616.1,153.8z"/><path class="st4" d="M622.2,159.9V149h1.4v10.9H622.2z"/><path class="st4" d="M628.5,155.8l2-0.3c0.4-0.1,0.6-0.3,0.6-0.5c0-0.7-0.5-1.3-1.6-1.3c-1,0-1.5,0.6-1.6,1.5l-1.3-0.3 c0.1-1.4,1.4-2.3,3-2.3c2.2,0,3,1.2,3,2.6v3.6c0,0.6,0.1,1,0.1,1.2h-1.4c0-0.2-0.1-0.5-0.1-1c-0.3,0.5-1,1.2-2.3,1.2 c-1.5,0-2.4-1-2.4-2.2C626.3,156.7,627.3,156,628.5,155.8z M631,156.8v-0.3l-2.2,0.3c-0.6,0.1-1.1,0.4-1.1,1.1c0,0.5,0.5,1,1.2,1 C630.1,158.9,631,158.4,631,156.8z"/><path class="st4" d="M636.8,159.9h-1.4v-7.2h1.4v1c0.5-0.9,1.4-1.2,2.2-1.2c1.7,0,2.6,1.2,2.6,2.8v4.6h-1.4v-4.3 c0-1-0.4-1.8-1.7-1.8c-1.1,0-1.7,0.9-1.7,2V159.9z"/><path class="st4" d="M645.2,157.6c0.1,0.8,0.7,1.4,1.7,1.4c0.8,0,1.2-0.5,1.2-1c0-0.5-0.3-0.8-0.9-0.9l-1.2-0.3 c-1.1-0.2-1.8-1-1.8-2c0-1.2,1.2-2.3,2.6-2.3c2,0,2.6,1.3,2.7,1.9l-1.2,0.5c-0.1-0.4-0.4-1.2-1.5-1.2c-0.7,0-1.2,0.5-1.2,1 c0,0.4,0.3,0.8,0.8,0.9l1.2,0.3c1.3,0.3,2,1.1,2,2.1c0,1-0.9,2.2-2.6,2.2c-2,0-2.8-1.3-2.9-2.1L645.2,157.6z"/><path class="st5" d="M253.9,210.8h143.4v50H253.9V210.8z"/><path class="st4" d="M310.8,241v-8.3l-3.6,8.3h-1.4l-3.6-8.3v8.3h-1.5v-10.6h2l3.8,8.7l3.8-8.7h2V241H310.8z"/><path class="st4" d="M317.2,236.9l2-0.3c0.4-0.1,0.6-0.3,0.6-0.5c0-0.7-0.5-1.3-1.6-1.3c-1,0-1.5,0.6-1.6,1.5l-1.3-0.3 c0.1-1.4,1.4-2.3,3-2.3c2.2,0,3,1.2,3,2.6v3.6c0,0.6,0.1,1,0.1,1.2h-1.4c0-0.2-0.1-0.5-0.1-1c-0.3,0.5-1,1.2-2.3,1.2 c-1.5,0-2.4-1-2.4-2.2C315,237.8,316,237.1,317.2,236.9z M319.7,237.9v-0.3l-2.2,0.3c-0.6,0.1-1.1,0.4-1.1,1.1c0,0.5,0.5,1,1.2,1 C318.8,240,319.7,239.5,319.7,237.9z"/><path class="st4" d="M324.7,238.7c0.1,0.8,0.7,1.4,1.7,1.4c0.8,0,1.2-0.5,1.2-1c0-0.4-0.3-0.8-0.9-0.9l-1.2-0.3 c-1.1-0.2-1.8-1-1.8-2c0-1.2,1.2-2.3,2.6-2.3c2,0,2.6,1.3,2.7,1.9l-1.2,0.5c-0.1-0.4-0.4-1.2-1.5-1.2c-0.7,0-1.2,0.5-1.2,1 c0,0.4,0.3,0.8,0.8,0.9l1.2,0.3c1.3,0.3,2,1.1,2,2.1c0,1-0.9,2.2-2.6,2.2c-2,0-2.8-1.3-2.9-2.1L324.7,238.7z"/><path class="st4" d="M333.5,233.8h1.6v1.3h-1.6v3.8c0,0.7,0.3,1,1,1c0.2,0,0.4,0,0.6-0.1v1.2c-0.1,0-0.5,0.1-1,0.1 c-1.2,0-2-0.8-2-2.1v-4h-1.4v-1.3h0.4c0.8,0,1.1-0.5,1.1-1.1v-1.2h1.3V233.8z"/><path class="st4" d="M343.9,239c-0.4,1.3-1.6,2.3-3.2,2.3c-1.9,0-3.6-1.4-3.6-3.9c0-2.3,1.6-3.8,3.4-3.8c2.2,0,3.5,1.5,3.5,3.8 c0,0.2,0,0.4,0,0.4h-5.4c0,1.3,1,2.2,2.2,2.2c1.2,0,1.8-0.6,2-1.5L343.9,239z M342.4,236.7c0-1-0.7-1.8-2-1.8 c-1.2,0-1.9,0.9-2,1.8H342.4z"/><path class="st4" d="M350.5,235.2c-0.2,0-0.4,0-0.6,0c-1.2,0-2,0.6-2,2.2v3.6h-1.4v-7.2h1.4v1.3c0.5-1.1,1.4-1.4,2.2-1.4 c0.2,0,0.4,0,0.5,0V235.2z"/></svg>