<svg id="Layer_1" xmlns="http://www.w3.org/2000/svg" viewBox="0 0 800 500"><style>.st0{fill:none;stroke:#414141;stroke-width:4;stroke-linecap:round;stroke-linejoin:round;stroke-miterlimit:10;} .st1{fill:#FFFFFF;stroke:#414141;stroke-width:4;stroke-linecap:round;stroke-linejoin:round;stroke-miterlimit:10;} .st2{fill:#59ADDF;stroke:#414141;stroke-width:4;stroke-linejoin:round;stroke-miterlimit:10;} .st3{fill:#B5E1F8;stroke:#414141;stroke-width:4;stroke-linejoin:round;stroke-miterlimit:10;} .st4{fill:#414141;} .st5{fill:#61C19B;stroke:#414141;stroke-width:4;stroke-linecap:round;stroke-linejoin:round;stroke-miterlimit:10;}</style><path class="st0" d="M531.8,250H573 M418.1,291c0,22.6-18.4,41-41,41H154 M418.1,291c0-22.6,18.4-41,41-41h30.7"/><circle class="st1" cx="320.5" cy="332" r="21"/><circle class="st1" cx="237.3" cy="332" r="21"/><circle class="st1" cx="154" cy="332" r="21"/><circle class="st1" cx="510.8" cy="250" r="21"/><circle class="st2" cx="594" cy="250" r="21"/><path class="st0" d="M594.5,207.5V184 M605.4,198.8l-10.9,10.8l-10.8-10.8"/><path class="st3" d="M523.6,339.4H667v50H523.6V339.4z"/><path class="st4" d="M551.7,370.7v-8.3l-3.6,8.3h-1.4l-3.6-8.3v8.3h-1.5v-10.6h2l3.8,8.7l3.8-8.7h2v10.6H551.7z"/><path class="st4" d="M558.1,366.6l2-0.3c0.4-0.1,0.6-0.3,0.6-0.5c0-0.7-0.5-1.3-1.6-1.3c-1,0-1.5,0.6-1.6,1.5l-1.3-0.3 c0.1-1.4,1.4-2.3,3-2.3c2.2,0,3,1.2,3,2.6v3.6c0,0.6,0.1,1,0.1,1.2h-1.4c0-0.2-0.1-0.5-0.1-1c-0.3,0.5-1,1.2-2.3,1.2 c-1.5,0-2.4-1-2.4-2.2C555.9,367.5,556.8,366.8,558.1,366.6z M560.6,367.6v-0.3l-2.2,0.3c-0.6,0.1-1.1,0.4-1.1,1.1 c0,0.5,0.5,1,1.2,1C559.7,369.7,560.6,369.2,560.6,367.6z"/><path class="st4" d="M565.5,368.4c0.1,0.8,0.7,1.4,1.7,1.4c0.8,0,1.2-0.5,1.2-1c0-0.5-0.3-0.8-0.9-0.9l-1.2-0.3 c-1.1-0.2-1.8-1-1.8-2c0-1.2,1.2-2.3,2.6-2.3c2,0,2.6,1.3,2.7,1.9l-1.2,0.5c-0.1-0.4-0.4-1.2-1.5-1.2c-0.7,0-1.2,0.5-1.2,1 c0,0.4,0.3,0.8,0.8,0.9l1.2,0.3c1.3,0.3,2,1.1,2,2.1c0,1-0.9,2.2-2.6,2.2c-2,0-2.8-1.3-2.9-2.1L565.5,368.4z"/><path class="st4" d="M574.4,363.5h1.6v1.3h-1.6v3.8c0,0.7,0.3,1,1,1c0.2,0,0.4,0,0.6-0.1v1.2c-0.1,0-0.5,0.1-1,0.1 c-1.2,0-2-0.8-2-2.1v-4h-1.4v-1.3h0.4c0.8,0,1.1-0.5,1.1-1.1v-1.2h1.3V363.5z"/><path class="st4" d="M584.8,368.6c-0.4,1.3-1.6,2.3-3.2,2.3c-1.9,0-3.6-1.4-3.6-3.9c0-2.3,1.6-3.8,3.4-3.8c2.2,0,3.5,1.5,3.5,3.8 c0,0.2,0,0.4,0,0.5h-5.4c0,1.3,1,2.2,2.2,2.2c1.2,0,1.8-0.6,2-1.5L584.8,368.6z M583.3,366.4c0-1-0.7-1.8-2-1.8 c-1.2,0-1.9,0.9-2,1.8H583.3z"/><path class="st4" d="M591.4,364.9c-0.2,0-0.4,0-0.6,0c-1.2,0-2,0.6-2,2.2v3.6h-1.4v-7.2h1.4v1.3c0.5-1.1,1.4-1.4,2.2-1.4 c0.2,0,0.4,0,0.5,0V364.9z"/><path class="st4" d="M598.1,370.7v-10.9h1.4v4.7c0.3-0.6,1.2-1.2,2.4-1.2c2.2,0,3.3,1.7,3.3,3.8c0,2.1-1.2,3.8-3.4,3.8 c-1.1,0-1.9-0.5-2.3-1.2v1H598.1z M601.6,364.5c-1.2,0-2.1,1-2.1,2.5c0,1.6,0.9,2.6,2.1,2.6c1.3,0,2.1-1,2.1-2.6 C603.8,365.5,602.9,364.5,601.6,364.5z"/><path class="st4" d="M611.8,364.9c-0.2,0-0.4,0-0.6,0c-1.2,0-2,0.6-2,2.2v3.6h-1.4v-7.2h1.4v1.3c0.5-1.1,1.4-1.4,2.2-1.4 c0.2,0,0.4,0,0.5,0V364.9z"/><path class="st4" d="M615.7,366.6l2-0.3c0.4-0.1,0.6-0.3,0.6-0.5c0-0.7-0.5-1.3-1.6-1.3c-1,0-1.5,0.6-1.6,1.5l-1.3-0.3 c0.1-1.4,1.4-2.3,3-2.3c2.2,0,3,1.2,3,2.6v3.6c0,0.6,0.1,1,0.1,1.2h-1.4c0-0.2-0.1-0.5-0.1-1c-0.3,0.5-1,1.2-2.3,1.2 c-1.5,0-2.4-1-2.4-2.2C613.6,367.5,614.5,366.8,615.7,366.6z M618.3,367.6v-0.3l-2.2,0.3c-0.6,0.1-1.1,0.4-1.1,1.1 c0,0.5,0.5,1,1.2,1C617.3,369.7,618.3,369.2,618.3,367.6z"/><path class="st4" d="M624,370.7h-1.4v-7.2h1.4v1c0.5-0.9,1.4-1.2,2.2-1.2c1.7,0,2.6,1.2,2.6,2.8v4.6h-1.4v-4.3 c0-1-0.4-1.8-1.7-1.8c-1.1,0-1.7,0.9-1.7,2V370.7z"/><path class="st4" d="M632.6,367.1c0,1.7,1,2.5,2.2,2.5c1.3,0,1.8-0.9,2-1.5l1.2,0.5c-0.3,1-1.4,2.2-3.3,2.2 c-2.1,0-3.6-1.6-3.6-3.8c0-2.2,1.6-3.8,3.6-3.8c1.9,0,2.9,1.2,3.2,2.3l-1.3,0.5c-0.2-0.7-0.7-1.5-1.9-1.5 C633.7,364.6,632.6,365.4,632.6,367.1z"/><path class="st4" d="M641.9,370.7h-1.4v-10.9h1.4v4.5c0.5-0.8,1.4-1,2.2-1c1.7,0,2.6,1.2,2.6,2.8v4.6h-1.4v-4.3 c0-1-0.4-1.8-1.7-1.8c-1.1,0-1.7,0.8-1.7,1.9V370.7z"/><path class="st5" d="M534.8,110.6h119.4v50H534.8V110.6z"/><path class="st4" d="M548.5,141.7v-10.6h6.5v1.4h-5v3.4h4.5v1.4h-4.5v4.5H548.5z"/><path class="st4" d="M559.3,141.9c-1.7,0-2.7-1.3-2.7-2.9v-4.5h1.4v4.3c0,1,0.5,1.9,1.6,1.9c1.1,0,1.7-0.8,1.7-1.8v-4.3h1.4v5.9 c0,0.6,0,1.1,0.1,1.3h-1.3c0-0.2-0.1-0.6-0.1-0.9C561,141.6,560.1,141.9,559.3,141.9z"/><path class="st4" d="M567.8,134.5h1.6v1.3h-1.6v3.8c0,0.7,0.3,1,1,1c0.2,0,0.4,0,0.6-0.1v1.2c-0.1,0-0.5,0.1-1,0.1 c-1.2,0-2-0.8-2-2.1v-4H565v-1.3h0.4c0.8,0,1.1-0.5,1.1-1.1v-1.2h1.3V134.5z"/><path class="st4" d="M574.6,141.9c-1.7,0-2.7-1.3-2.7-2.9v-4.5h1.4v4.3c0,1,0.5,1.9,1.6,1.9c1.1,0,1.7-0.8,1.7-1.8v-4.3h1.4v5.9 c0,0.6,0,1.1,0.1,1.3h-1.3c0-0.2-0.1-0.6-0.1-0.9C576.3,141.6,575.4,141.9,574.6,141.9z"/><path class="st4" d="M585.2,135.9c-0.2,0-0.4,0-0.6,0c-1.2,0-2,0.6-2,2.2v3.6h-1.4v-7.2h1.4v1.3c0.5-1.1,1.4-1.4,2.2-1.4 c0.2,0,0.4,0,0.5,0V135.9z"/><path class="st4" d="M593.7,139.7c-0.4,1.3-1.6,2.3-3.2,2.3c-1.9,0-3.6-1.4-3.6-3.9c0-2.3,1.6-3.8,3.4-3.8c2.2,0,3.5,1.5,3.5,3.8 c0,0.2,0,0.4,0,0.5h-5.4c0,1.3,1,2.2,2.2,2.2c1.2,0,1.8-0.6,2-1.5L593.7,139.7z M592.3,137.4c0-1-0.7-1.8-2-1.8 c-1.2,0-1.9,0.9-2,1.8H592.3z"/><path class="st4" d="M599.5,138v-1.2h4.1v1.2H599.5z"/><path class="st4" d="M606.2,144.6v-10.1h1.4v1.1c0.4-0.7,1.2-1.3,2.4-1.3c2.2,0,3.3,1.7,3.3,3.8c0,2.1-1.2,3.8-3.4,3.8 c-1.1,0-1.9-0.5-2.3-1.2v3.8H606.2z M609.7,135.6c-1.3,0-2.1,1.1-2.1,2.5c0,1.5,0.9,2.5,2.1,2.5c1.3,0,2.1-1.1,2.1-2.5 C611.8,136.7,611,135.6,609.7,135.6z"/><path class="st4" d="M615.8,141.7v-10.9h1.4v10.9H615.8z"/><path class="st4" d="M622.1,137.6l2-0.3c0.4-0.1,0.6-0.3,0.6-0.5c0-0.7-0.5-1.3-1.6-1.3c-1,0-1.5,0.6-1.6,1.5l-1.3-0.3 c0.1-1.4,1.4-2.3,3-2.3c2.2,0,3,1.2,3,2.6v3.6c0,0.6,0.1,1,0.1,1.2h-1.4c0-0.2-0.1-0.5-0.1-1c-0.3,0.5-1,1.2-2.3,1.2 c-1.5,0-2.4-1-2.4-2.2C619.9,138.5,620.9,137.8,622.1,137.6z M624.6,138.6v-0.3l-2.2,0.3c-0.6,0.1-1.1,0.4-1.1,1.1 c0,0.5,0.5,1,1.2,1C623.7,140.8,624.6,140.2,624.6,138.6z"/><path class="st4" d="M630.4,141.7H629v-7.2h1.4v1c0.5-0.9,1.4-1.2,2.2-1.2c1.7,0,2.6,1.2,2.6,2.8v4.6h-1.4v-4.3 c0-1-0.4-1.8-1.7-1.8c-1.1,0-1.7,0.9-1.7,2V141.7z"/><path class="st4" d="M638.8,139.4c0.1,0.8,0.7,1.4,1.7,1.4c0.8,0,1.2-0.5,1.2-1c0-0.5-0.3-0.8-0.9-0.9l-1.2-0.3 c-1.1-0.2-1.8-1-1.8-2c0-1.2,1.2-2.3,2.6-2.3c2,0,2.6,1.3,2.7,1.9l-1.2,0.5c-0.1-0.4-0.4-1.2-1.5-1.2c-0.7,0-1.2,0.5-1.2,1 c0,0.4,0.3,0.8,0.8,0.9l1.2,0.3c1.3,0.3,2,1.1,2,2.1c0,1-0.9,2.2-2.6,2.2c-2,0-2.8-1.3-2.9-2.1L638.8,139.4z"/><path class="st0" d="M594.6,292.8v23.5 M583.7,301.5l10.9-10.8l10.8,10.8"/></svg>