<svg id="Layer_1" xmlns="http://www.w3.org/2000/svg" viewBox="0 0 800 1000"><style>.st0{fill:none;stroke:#CCCBCB;stroke-linecap:round;stroke-linejoin:round;stroke-miterlimit:10;} .st1{fill:#979797;} .st2{fill:none;stroke:#414141;stroke-width:4;stroke-linecap:round;stroke-linejoin:round;stroke-miterlimit:10;} .st3{fill:#B5E1F8;stroke:#414141;stroke-width:4;stroke-linejoin:round;stroke-miterlimit:10;} .st4{fill:#414141;} .st5{fill:#FFFFFF;stroke:#414141;stroke-width:4;stroke-linecap:round;stroke-linejoin:round;stroke-miterlimit:10;} .st6{fill:#59ADDF;stroke:#414141;stroke-width:4;stroke-linejoin:round;stroke-miterlimit:10;} .st7{fill:#B5E1F8;stroke:#414141;stroke-width:4;stroke-miterlimit:10;}</style><path class="st0" d="M129.3,506.6h541.4"/><path class="st1" d="M349.1,32.6c2,0,3.2,1.2,3.2,2.9c0,1.1-0.7,2-1.6,2.3c1.2,0.3,1.9,1.4,1.9,2.6c0,1.7-1.3,2.9-3.3,2.9h-3.7 V32.6H349.1z M348.9,37.3c1.2,0,1.9-0.7,1.9-1.7c0-1-0.7-1.7-2-1.7h-1.8v3.4H348.9z M349.1,41.9c1.2,0,2-0.7,2-1.7 c0-1-0.6-1.7-1.9-1.7h-2.1v3.4H349.1z"/><path class="st1" d="M361.6,41.2c-0.4,1.3-1.6,2.3-3.2,2.3c-1.9,0-3.6-1.4-3.6-3.9c0-2.3,1.6-3.8,3.4-3.8c2.2,0,3.5,1.5,3.5,3.8 c0,0.2,0,0.4,0,0.5h-5.4c0,1.3,1,2.2,2.2,2.2c1.2,0,1.8-0.6,2-1.5L361.6,41.2z M360.2,38.9c0-1-0.7-1.8-2-1.8 c-1.2,0-1.9,0.9-2,1.8H360.2z"/><path class="st1" d="M366.1,37.3v5.9h-1.5v-5.9h-1.3V36h1.3v-1.2c0-1.6,1.1-2.5,2.4-2.5c0.5,0,0.8,0.1,0.8,0.1v1.3 c-0.1,0-0.3-0.1-0.6-0.1c-0.5,0-1.1,0.2-1.1,1.2V36h1.7v1.3H366.1z"/><path class="st1" d="M376.6,39.6c0,2.2-1.5,3.8-3.7,3.8s-3.7-1.6-3.7-3.8c0-2.2,1.5-3.8,3.7-3.8S376.6,37.4,376.6,39.6z M375.2,39.6c0-1.7-1-2.6-2.2-2.6s-2.2,0.9-2.2,2.6c0,1.7,1,2.6,2.2,2.6S375.2,41.3,375.2,39.6z"/><path class="st1" d="M383.1,37.4c-0.2,0-0.4,0-0.6,0c-1.2,0-2,0.6-2,2.2v3.6h-1.4V36h1.4v1.3c0.5-1.1,1.4-1.4,2.2-1.4 c0.2,0,0.4,0,0.5,0V37.4z"/><path class="st1" d="M391.6,41.2c-0.4,1.3-1.6,2.3-3.2,2.3c-1.9,0-3.6-1.4-3.6-3.9c0-2.3,1.6-3.8,3.4-3.8c2.2,0,3.5,1.5,3.5,3.8 c0,0.2,0,0.4,0,0.5h-5.4c0,1.3,1,2.2,2.2,2.2c1.2,0,1.8-0.6,2-1.5L391.6,41.2z M390.2,38.9c0-1-0.7-1.8-2-1.8 c-1.2,0-1.9,0.9-2,1.8H390.2z"/><path class="st1" d="M398.7,46.1V36h1.4v1.1c0.4-0.7,1.2-1.3,2.4-1.3c2.2,0,3.3,1.7,3.3,3.8c0,2.1-1.2,3.8-3.4,3.8 c-1.1,0-1.9-0.5-2.3-1.2v3.8H398.7z M402.2,37.1c-1.3,0-2.1,1.1-2.1,2.5c0,1.5,0.9,2.5,2.1,2.5c1.3,0,2.1-1.1,2.1-2.5 C404.4,38.2,403.5,37.1,402.2,37.1z"/><path class="st1" d="M410.9,43.5c-1.7,0-2.7-1.3-2.7-2.9V36h1.4v4.3c0,1,0.5,1.9,1.6,1.9c1.1,0,1.7-0.8,1.7-1.8V36h1.4v5.9 c0,0.6,0,1.1,0.1,1.3h-1.3c0-0.2-0.1-0.6-0.1-0.9C412.6,43.1,411.7,43.5,410.9,43.5z"/><path class="st1" d="M418.1,40.9c0.1,0.8,0.7,1.4,1.7,1.4c0.8,0,1.2-0.5,1.2-1c0-0.5-0.3-0.8-0.9-0.9l-1.2-0.3 c-1.1-0.2-1.8-1-1.8-2c0-1.2,1.2-2.3,2.6-2.3c2,0,2.6,1.3,2.7,1.9l-1.2,0.5c-0.1-0.4-0.4-1.2-1.5-1.2c-0.7,0-1.2,0.5-1.2,1 c0,0.4,0.3,0.8,0.8,0.9l1.2,0.3c1.3,0.3,2,1.1,2,2.1c0,1-0.9,2.2-2.6,2.2c-2,0-2.8-1.3-2.9-2.1L418.1,40.9z"/><path class="st1" d="M426.5,43.2H425V32.4h1.4v4.5c0.5-0.8,1.4-1,2.2-1c1.7,0,2.6,1.2,2.6,2.8v4.6h-1.4v-4.3c0-1-0.4-1.8-1.7-1.8 c-1.1,0-1.7,0.8-1.7,1.9V43.2z"/><path class="st1" d="M434.9,32.3c0.6,0,1,0.5,1,1c0,0.6-0.5,1-1,1c-0.6,0-1-0.5-1-1C433.9,32.7,434.4,32.3,434.9,32.3z M434.2,43.2V36h1.4v7.2H434.2z"/><path class="st1" d="M440.2,43.2h-1.4V36h1.4v1c0.5-0.9,1.4-1.2,2.2-1.2c1.7,0,2.6,1.2,2.6,2.8v4.6h-1.4v-4.3c0-1-0.4-1.8-1.7-1.8 c-1.1,0-1.7,0.9-1.7,2V43.2z"/><path class="st1" d="M448.8,43.3c0.1,1,0.9,1.8,2,1.8c1.5,0,2.2-0.8,2.2-2.3v-1c-0.3,0.7-1.1,1.2-2.2,1.2c-1.9,0-3.3-1.5-3.3-3.5 c0-2,1.3-3.5,3.3-3.5c1.1,0,1.9,0.4,2.2,1.1v-1h1.4v6.7c0,1.8-0.9,3.6-3.6,3.6c-1.8,0-3.2-1.1-3.3-2.7L448.8,43.3z M453,39.4 c0-1.4-0.8-2.3-2.1-2.3c-1.2,0-2.1,0.9-2.1,2.3c0,1.4,0.8,2.3,2.1,2.3C452.2,41.7,453,40.8,453,39.4z"/><path class="st1" d="M357.7,614.1H353l-1.1,3h-1.6l4.2-10.6h1.7l4.2,10.6h-1.6L357.7,614.1z M353.5,612.8h3.7l-1.8-4.8 L353.5,612.8z"/><path class="st1" d="M364.4,611.2v5.9H363v-5.9h-1.3v-1.3h1.3v-1.2c0-1.6,1.1-2.5,2.4-2.5c0.5,0,0.8,0.1,0.8,0.1v1.3 c-0.1,0-0.3-0.1-0.6-0.1c-0.5,0-1.1,0.2-1.1,1.2v1.1h1.7v1.3H364.4z"/><path class="st1" d="M370.3,609.9h1.6v1.3h-1.6v3.8c0,0.7,0.3,1,1,1c0.2,0,0.4,0,0.6-0.1v1.2c-0.1,0-0.5,0.1-1,0.1 c-1.2,0-2-0.8-2-2.1v-4h-1.4v-1.3h0.4c0.8,0,1.1-0.5,1.1-1.1v-1.2h1.3V609.9z"/><path class="st1" d="M380.7,615c-0.4,1.3-1.6,2.3-3.2,2.3c-1.9,0-3.6-1.4-3.6-3.9c0-2.3,1.6-3.8,3.4-3.8c2.2,0,3.5,1.5,3.5,3.8 c0,0.2,0,0.4,0,0.5h-5.4c0,1.3,1,2.2,2.2,2.2c1.2,0,1.8-0.6,2-1.5L380.7,615z M379.3,612.8c0-1-0.7-1.8-2-1.8 c-1.2,0-1.9,0.9-2,1.8H379.3z"/><path class="st1" d="M387.3,611.3c-0.2,0-0.4,0-0.6,0c-1.2,0-2,0.6-2,2.2v3.6h-1.4v-7.2h1.4v1.3c0.5-1.1,1.4-1.4,2.2-1.4 c0.2,0,0.4,0,0.5,0V611.3z"/><path class="st1" d="M394.1,620v-10.1h1.4v1.1c0.4-0.7,1.2-1.3,2.4-1.3c2.2,0,3.3,1.7,3.3,3.8c0,2.1-1.2,3.8-3.4,3.8 c-1.1,0-1.9-0.5-2.3-1.2v3.8H394.1z M397.6,611c-1.3,0-2.1,1.1-2.1,2.5c0,1.5,0.9,2.5,2.1,2.5c1.3,0,2.1-1.1,2.1-2.5 C399.7,612,398.9,611,397.6,611z"/><path class="st1" d="M406.3,617.3c-1.7,0-2.7-1.3-2.7-2.9v-4.5h1.4v4.3c0,1,0.5,1.9,1.6,1.9c1.1,0,1.7-0.8,1.7-1.8v-4.3h1.4v5.9 c0,0.6,0,1.1,0.1,1.3h-1.3c0-0.2-0.1-0.6-0.1-0.9C408,617,407.1,617.3,406.3,617.3z"/><path class="st1" d="M413.5,614.8c0.1,0.8,0.7,1.4,1.7,1.4c0.8,0,1.2-0.5,1.2-1c0-0.5-0.3-0.8-0.9-0.9l-1.2-0.3 c-1.1-0.2-1.8-1-1.8-2c0-1.2,1.2-2.3,2.6-2.3c2,0,2.6,1.3,2.7,1.9l-1.2,0.5c-0.1-0.4-0.4-1.2-1.5-1.2c-0.7,0-1.2,0.5-1.2,1 c0,0.4,0.3,0.8,0.8,0.9l1.2,0.3c1.3,0.3,2,1.1,2,2.1c0,1-0.9,2.2-2.6,2.2c-2,0-2.8-1.3-2.9-2.1L413.5,614.8z"/><path class="st1" d="M421.8,617.1h-1.4v-10.9h1.4v4.5c0.5-0.8,1.4-1,2.2-1c1.7,0,2.6,1.2,2.6,2.8v4.6h-1.4v-4.3 c0-1-0.4-1.8-1.7-1.8c-1.1,0-1.7,0.8-1.7,1.9V617.1z"/><path class="st1" d="M430.3,606.1c0.6,0,1,0.5,1,1c0,0.6-0.5,1-1,1c-0.6,0-1-0.5-1-1C429.3,606.6,429.7,606.1,430.3,606.1z M429.6,617.1v-7.2h1.4v7.2H429.6z"/><path class="st1" d="M435.5,617.1h-1.4v-7.2h1.4v1c0.5-0.9,1.4-1.2,2.2-1.2c1.7,0,2.6,1.2,2.6,2.8v4.6h-1.4v-4.3 c0-1-0.4-1.8-1.7-1.8c-1.1,0-1.7,0.9-1.7,2V617.1z"/><path class="st1" d="M444.1,617.2c0.1,1,0.9,1.8,2,1.8c1.5,0,2.2-0.8,2.2-2.3v-1c-0.3,0.7-1.1,1.2-2.2,1.2c-1.9,0-3.3-1.5-3.3-3.5 c0-2,1.3-3.5,3.3-3.5c1.1,0,1.9,0.4,2.2,1.1v-1h1.4v6.7c0,1.8-0.9,3.6-3.6,3.6c-1.8,0-3.2-1.1-3.3-2.7L444.1,617.2z M448.4,613.3 c0-1.4-0.8-2.3-2.1-2.3c-1.2,0-2.1,0.9-2.1,2.3c0,1.4,0.8,2.3,2.1,2.3C447.5,615.6,448.4,614.7,448.4,613.3z"/><path class="st2" d="M541.2,785.8v-23.5 M552.1,777.1l-10.9,10.8l-10.8-10.8"/><path class="st3" d="M470.3,917.7h143.4v50H470.3V917.7z"/><path class="st2" d="M540.7,871.2v23.5 M529.8,879.9l10.9-10.9l10.9,10.9"/><path class="st4" d="M489,948.8v-10.6h1.5v9.3h5v1.4H489z"/><path class="st4" d="M504.5,945.2c0,2.2-1.5,3.8-3.7,3.8s-3.7-1.6-3.7-3.8c0-2.2,1.5-3.8,3.7-3.8S504.5,943,504.5,945.2z M503.1,945.2c0-1.7-1-2.6-2.2-2.6s-2.2,0.9-2.2,2.6c0,1.7,1,2.6,2.2,2.6S503.1,946.9,503.1,945.2z"/><path class="st4" d="M507.9,945.2c0,1.7,1,2.5,2.2,2.5c1.3,0,1.8-0.9,2-1.5l1.2,0.5c-0.3,1-1.4,2.2-3.3,2.2 c-2.1,0-3.6-1.6-3.6-3.8c0-2.2,1.6-3.8,3.6-3.8c1.9,0,2.9,1.2,3.2,2.3l-1.3,0.5c-0.2-0.7-0.7-1.5-1.9-1.5 C509,942.7,507.9,943.5,507.9,945.2z"/><path class="st4" d="M517.4,944.7l2-0.3c0.4-0.1,0.6-0.3,0.6-0.5c0-0.7-0.5-1.3-1.6-1.3c-1,0-1.5,0.6-1.6,1.5l-1.3-0.3 c0.1-1.4,1.4-2.3,3-2.3c2.2,0,3,1.2,3,2.6v3.6c0,0.6,0.1,1,0.1,1.2h-1.4c0-0.2-0.1-0.5-0.1-1c-0.3,0.5-1,1.2-2.3,1.2 c-1.5,0-2.4-1-2.4-2.2C515.2,945.6,516.2,944.9,517.4,944.7z M519.9,945.7v-0.3l-2.2,0.3c-0.6,0.1-1.1,0.4-1.1,1.1 c0,0.5,0.5,1,1.2,1C519,947.9,519.9,947.3,519.9,945.7z"/><path class="st4" d="M524.3,948.8V938h1.4v10.9H524.3z"/><path class="st4" d="M533.5,948.8h-1.4l5.1-10.6h1.4L533.5,948.8z"/><path class="st4" d="M555.3,948.8v-8.3l-3.6,8.3h-1.4l-3.6-8.3v8.3h-1.5v-10.6h2l3.8,8.7l3.8-8.7h2v10.6H555.3z"/><path class="st4" d="M561.7,944.7l2-0.3c0.4-0.1,0.6-0.3,0.6-0.5c0-0.7-0.5-1.3-1.6-1.3c-1,0-1.5,0.6-1.6,1.5l-1.3-0.3 c0.1-1.4,1.4-2.3,3-2.3c2.2,0,3,1.2,3,2.6v3.6c0,0.6,0.1,1,0.1,1.2h-1.4c0-0.2-0.1-0.5-0.1-1c-0.3,0.5-1,1.2-2.3,1.2 c-1.5,0-2.4-1-2.4-2.2C559.5,945.6,560.5,944.9,561.7,944.7z M564.2,945.7v-0.3l-2.2,0.3c-0.6,0.1-1.1,0.4-1.1,1.1 c0,0.5,0.5,1,1.2,1C563.3,947.9,564.2,947.3,564.2,945.7z"/><path class="st4" d="M569.2,946.5c0.1,0.8,0.7,1.4,1.7,1.4c0.8,0,1.2-0.5,1.2-1c0-0.5-0.3-0.8-0.9-0.9l-1.2-0.3 c-1.1-0.2-1.8-1-1.8-2c0-1.2,1.2-2.3,2.6-2.3c2,0,2.6,1.3,2.7,1.9l-1.2,0.5c-0.1-0.4-0.4-1.2-1.5-1.2c-0.7,0-1.2,0.5-1.2,1 c0,0.4,0.3,0.8,0.8,0.9l1.2,0.3c1.3,0.3,2,1.1,2,2.1c0,1-0.9,2.2-2.6,2.2c-2,0-2.8-1.3-2.9-2.1L569.2,946.5z"/><path class="st4" d="M578,941.6h1.6v1.3H578v3.8c0,0.7,0.3,1,1,1c0.2,0,0.4,0,0.6-0.1v1.2c-0.1,0-0.5,0.1-1,0.1 c-1.2,0-2-0.8-2-2.1v-4h-1.4v-1.3h0.4c0.8,0,1.1-0.5,1.1-1.1v-1.2h1.3V941.6z"/><path class="st4" d="M588.4,946.8c-0.4,1.3-1.6,2.3-3.2,2.3c-1.9,0-3.6-1.4-3.6-3.9c0-2.3,1.6-3.8,3.4-3.8c2.2,0,3.5,1.5,3.5,3.8 c0,0.2,0,0.4,0,0.5H583c0,1.3,1,2.2,2.2,2.2c1.2,0,1.8-0.6,2-1.5L588.4,946.8z M587,944.5c0-1-0.7-1.8-2-1.8 c-1.2,0-1.9,0.9-2,1.8H587z"/><path class="st4" d="M595,943c-0.2,0-0.4,0-0.6,0c-1.2,0-2,0.6-2,2.2v3.6H591v-7.2h1.4v1.3c0.5-1.1,1.4-1.4,2.2-1.4 c0.2,0,0.4,0,0.5,0V943z"/><path class="st2" d="M186.3 828.4L561.7 828.4"/><circle class="st5" cx="373.8" cy="828.4" r="21"/><circle class="st5" cx="290.6" cy="828.4" r="21"/><circle class="st5" cx="207.3" cy="828.4" r="21"/><circle class="st5" cx="457.4" cy="828.4" r="21"/><circle class="st6" cx="540.7" cy="828.4" r="21"/><path class="st7" d="M470.3,689h143.4v50H470.3V689z"/><path class="st4" d="M490.6,709.2c2.7,0,5.3,2,5.3,5.5c0,3.6-2.7,5.6-5.3,5.6s-5.3-2-5.3-5.6C485.3,711.2,488,709.2,490.6,709.2z M490.6,719c2,0,3.8-1.4,3.8-4.2c0-2.8-1.9-4.2-3.8-4.2c-2,0-3.8,1.4-3.8,4.2C486.8,717.6,488.6,719,490.6,719z"/><path class="st4" d="M502.6,714.3c-0.2,0-0.4,0-0.6,0c-1.2,0-2,0.6-2,2.2v3.6h-1.4v-7.2h1.4v1.3c0.5-1.1,1.4-1.4,2.2-1.4 c0.2,0,0.4,0,0.5,0V714.3z"/><path class="st4" d="M505.5,709.1c0.6,0,1,0.4,1,1c0,0.6-0.5,1-1,1c-0.6,0-1-0.5-1-1C504.5,709.6,505,709.1,505.5,709.1z M504.8,720.1v-7.2h1.4v7.2H504.8z"/><path class="st4" d="M510.2,720.2c0.1,1,0.9,1.8,2,1.8c1.5,0,2.2-0.8,2.2-2.3v-1c-0.3,0.7-1.1,1.2-2.2,1.2 c-1.9,0-3.3-1.5-3.3-3.5c0-2,1.3-3.5,3.3-3.5c1.1,0,1.9,0.4,2.2,1.1v-1h1.4v6.7c0,1.8-0.9,3.6-3.6,3.6c-1.8,0-3.2-1.1-3.3-2.7 L510.2,720.2z M514.5,716.3c0-1.4-0.8-2.3-2.1-2.3c-1.2,0-2.1,0.9-2.1,2.3c0,1.4,0.8,2.3,2.1,2.3 C513.6,718.6,514.5,717.7,514.5,716.3z"/><path class="st4" d="M519.5,709.1c0.6,0,1,0.4,1,1c0,0.6-0.5,1-1,1c-0.6,0-1-0.5-1-1C518.5,709.6,518.9,709.1,519.5,709.1z M518.8,720.1v-7.2h1.4v7.2H518.8z"/><path class="st4" d="M524.8,720.1h-1.4v-7.2h1.4v1c0.5-0.9,1.4-1.2,2.2-1.2c1.7,0,2.6,1.2,2.6,2.8v4.6h-1.4v-4.3 c0-1-0.4-1.8-1.7-1.8c-1.1,0-1.7,0.9-1.7,2V720.1z"/><path class="st4" d="M537.2,720.1h-1.4l5.1-10.6h1.4L537.2,720.1z"/><path class="st4" d="M559,720.1v-8.3l-3.6,8.3H554l-3.6-8.3v8.3h-1.5v-10.6h2l3.8,8.7l3.8-8.7h2v10.6H559z"/><path class="st4" d="M565.4,716l2-0.3c0.4-0.1,0.6-0.3,0.6-0.5c0-0.7-0.5-1.3-1.6-1.3c-1,0-1.5,0.6-1.6,1.5l-1.3-0.3 c0.1-1.4,1.4-2.3,3-2.3c2.2,0,3,1.2,3,2.6v3.6c0,0.6,0.1,1,0.1,1.2H568c0-0.2-0.1-0.5-0.1-1c-0.3,0.5-1,1.2-2.3,1.2 c-1.5,0-2.4-1-2.4-2.2C563.2,716.9,564.2,716.2,565.4,716z M567.9,717v-0.3l-2.2,0.3c-0.6,0.1-1.1,0.4-1.1,1.1c0,0.5,0.5,1,1.2,1 C567,719.1,567.9,718.6,567.9,717z"/><path class="st4" d="M572.9,717.8c0.1,0.8,0.7,1.4,1.7,1.4c0.8,0,1.2-0.5,1.2-1c0-0.4-0.3-0.8-0.9-0.9l-1.2-0.3 c-1.1-0.2-1.8-1-1.8-2c0-1.2,1.2-2.3,2.6-2.3c2,0,2.6,1.3,2.7,1.9l-1.2,0.5c-0.1-0.4-0.4-1.2-1.5-1.2c-0.7,0-1.2,0.5-1.2,1 c0,0.4,0.3,0.8,0.8,0.9l1.2,0.3c1.3,0.3,2,1.1,2,2.1c0,1-0.9,2.2-2.6,2.2c-2,0-2.8-1.3-2.9-2.1L572.9,717.8z"/><path class="st4" d="M581.7,712.9h1.6v1.3h-1.6v3.8c0,0.7,0.3,1,1,1c0.2,0,0.4,0,0.6-0.1v1.2c-0.1,0-0.5,0.1-1,0.1 c-1.2,0-2-0.8-2-2.1v-4h-1.4v-1.3h0.4c0.8,0,1.1-0.5,1.1-1.1v-1.2h1.3V712.9z"/><path class="st4" d="M592.1,718c-0.4,1.3-1.6,2.3-3.2,2.3c-1.9,0-3.6-1.4-3.6-3.9c0-2.3,1.6-3.8,3.4-3.8c2.2,0,3.5,1.5,3.5,3.8 c0,0.2,0,0.4,0,0.4h-5.4c0,1.3,1,2.2,2.2,2.2c1.2,0,1.8-0.6,2-1.5L592.1,718z M590.6,715.8c0-1-0.7-1.8-2-1.8 c-1.2,0-1.9,0.9-2,1.8H590.6z"/><path class="st4" d="M598.7,714.3c-0.2,0-0.4,0-0.6,0c-1.2,0-2,0.6-2,2.2v3.6h-1.4v-7.2h1.4v1.3c0.5-1.1,1.4-1.4,2.2-1.4 c0.2,0,0.4,0,0.5,0V714.3z"/><path class="st2" d="M186.3 256.8L561.7 256.8"/><circle class="st5" cx="373.8" cy="256.8" r="21"/><circle class="st5" cx="290.6" cy="256.8" r="21"/><circle class="st5" cx="207.3" cy="256.8" r="21"/><circle class="st5" cx="457.4" cy="256.8" r="21"/><circle class="st6" cx="540.7" cy="256.8" r="21"/><path class="st3" d="M470.3,346.1h143.4v50H470.3V346.1z"/><path class="st4" d="M489,377.2v-10.6h1.5v9.3h5v1.4H489z"/><path class="st4" d="M504.5,373.6c0,2.2-1.5,3.8-3.7,3.8s-3.7-1.6-3.7-3.8c0-2.2,1.5-3.8,3.7-3.8S504.5,371.4,504.5,373.6z M503.1,373.6c0-1.7-1-2.6-2.2-2.6s-2.2,0.9-2.2,2.6c0,1.7,1,2.6,2.2,2.6S503.1,375.3,503.1,373.6z"/><path class="st4" d="M507.9,373.6c0,1.7,1,2.5,2.2,2.5c1.3,0,1.8-0.9,2-1.5l1.2,0.5c-0.3,1-1.4,2.2-3.3,2.2 c-2.1,0-3.6-1.6-3.6-3.8c0-2.2,1.6-3.8,3.6-3.8c1.9,0,2.9,1.2,3.2,2.3l-1.3,0.5c-0.2-0.7-0.7-1.5-1.9-1.5 C509,371.1,507.9,371.9,507.9,373.6z"/><path class="st4" d="M517.4,373.1l2-0.3c0.4-0.1,0.6-0.3,0.6-0.5c0-0.7-0.5-1.3-1.6-1.3c-1,0-1.5,0.6-1.6,1.5l-1.3-0.3 c0.1-1.4,1.4-2.3,3-2.3c2.2,0,3,1.2,3,2.6v3.6c0,0.6,0.1,1,0.1,1.2h-1.4c0-0.2-0.1-0.5-0.1-1c-0.3,0.5-1,1.2-2.3,1.2 c-1.5,0-2.4-1-2.4-2.2C515.2,374,516.2,373.3,517.4,373.1z M519.9,374.1v-0.3l-2.2,0.3c-0.6,0.1-1.1,0.4-1.1,1.1 c0,0.5,0.5,1,1.2,1C519,376.2,519.9,375.7,519.9,374.1z"/><path class="st4" d="M524.3,377.2v-10.9h1.4v10.9H524.3z"/><path class="st4" d="M533.5,377.2h-1.4l5.1-10.6h1.4L533.5,377.2z"/><path class="st4" d="M555.3,377.2v-8.3l-3.6,8.3h-1.4l-3.6-8.3v8.3h-1.5v-10.6h2l3.8,8.7l3.8-8.7h2v10.6H555.3z"/><path class="st4" d="M561.7,373.1l2-0.3c0.4-0.1,0.6-0.3,0.6-0.5c0-0.7-0.5-1.3-1.6-1.3c-1,0-1.5,0.6-1.6,1.5l-1.3-0.3 c0.1-1.4,1.4-2.3,3-2.3c2.2,0,3,1.2,3,2.6v3.6c0,0.6,0.1,1,0.1,1.2h-1.4c0-0.2-0.1-0.5-0.1-1c-0.3,0.5-1,1.2-2.3,1.2 c-1.5,0-2.4-1-2.4-2.2C559.5,374,560.5,373.3,561.7,373.1z M564.2,374.1v-0.3l-2.2,0.3c-0.6,0.1-1.1,0.4-1.1,1.1 c0,0.5,0.5,1,1.2,1C563.3,376.2,564.2,375.7,564.2,374.1z"/><path class="st4" d="M569.2,374.9c0.1,0.8,0.7,1.4,1.7,1.4c0.8,0,1.2-0.5,1.2-1c0-0.5-0.3-0.8-0.9-0.9l-1.2-0.3 c-1.1-0.2-1.8-1-1.8-2c0-1.2,1.2-2.3,2.6-2.3c2,0,2.6,1.3,2.7,1.9l-1.2,0.5c-0.1-0.4-0.4-1.2-1.5-1.2c-0.7,0-1.2,0.5-1.2,1 c0,0.4,0.3,0.8,0.8,0.9l1.2,0.3c1.3,0.3,2,1.1,2,2.1c0,1-0.9,2.2-2.6,2.2c-2,0-2.8-1.3-2.9-2.1L569.2,374.9z"/><path class="st4" d="M578,370h1.6v1.3H578v3.8c0,0.7,0.3,1,1,1c0.2,0,0.4,0,0.6-0.1v1.2c-0.1,0-0.5,0.1-1,0.1c-1.2,0-2-0.8-2-2.1 v-4h-1.4V370h0.4c0.8,0,1.1-0.5,1.1-1.1v-1.2h1.3V370z"/><path class="st4" d="M588.4,375.1c-0.4,1.3-1.6,2.3-3.2,2.3c-1.9,0-3.6-1.4-3.6-3.9c0-2.3,1.6-3.8,3.4-3.8c2.2,0,3.5,1.5,3.5,3.8 c0,0.2,0,0.4,0,0.5H583c0,1.3,1,2.2,2.2,2.2c1.2,0,1.8-0.6,2-1.5L588.4,375.1z M587,372.9c0-1-0.7-1.8-2-1.8 c-1.2,0-1.9,0.9-2,1.8H587z"/><path class="st4" d="M595,371.4c-0.2,0-0.4,0-0.6,0c-1.2,0-2,0.6-2,2.2v3.6H591V370h1.4v1.3c0.5-1.1,1.4-1.4,2.2-1.4 c0.2,0,0.4,0,0.5,0V371.4z"/><path class="st2" d="M373.8,211.9v-23.5 M384.7,203.2L373.8,214L363,203.2"/><path class="st3" d="M302.9,115.1h143.4v50H302.9V115.1z"/><path class="st4" d="M323.2,135.4c2.7,0,5.3,2,5.3,5.5c0,3.6-2.7,5.6-5.3,5.6s-5.3-2-5.3-5.6 C317.9,137.4,320.6,135.4,323.2,135.4z M323.2,145.1c2,0,3.8-1.4,3.8-4.2c0-2.8-1.9-4.2-3.8-4.2c-2,0-3.8,1.4-3.8,4.2 C319.4,143.7,321.3,145.1,323.2,145.1z"/><path class="st4" d="M335.2,140.4c-0.2,0-0.4,0-0.6,0c-1.2,0-2,0.6-2,2.2v3.6h-1.4V139h1.4v1.3c0.5-1.1,1.4-1.4,2.2-1.4 c0.2,0,0.4,0,0.5,0V140.4z"/><path class="st4" d="M338.2,135.3c0.6,0,1,0.4,1,1c0,0.6-0.5,1-1,1c-0.6,0-1-0.5-1-1C337.2,135.7,337.6,135.3,338.2,135.3z M337.5,146.2V139h1.4v7.2H337.5z"/><path class="st4" d="M342.9,146.3c0.1,1,0.9,1.8,2,1.8c1.5,0,2.2-0.8,2.2-2.3v-1c-0.3,0.7-1.1,1.2-2.2,1.2 c-1.9,0-3.3-1.5-3.3-3.5c0-2,1.3-3.5,3.3-3.5c1.1,0,1.9,0.4,2.2,1.1v-1h1.4v6.7c0,1.8-0.9,3.6-3.6,3.6c-1.8,0-3.2-1.1-3.3-2.7 L342.9,146.3z M347.1,142.4c0-1.4-0.8-2.3-2.1-2.3c-1.2,0-2.1,0.9-2.1,2.3c0,1.4,0.8,2.3,2.1,2.3 C346.2,144.7,347.1,143.8,347.1,142.4z"/><path class="st4" d="M352.1,135.3c0.6,0,1,0.4,1,1c0,0.6-0.5,1-1,1c-0.6,0-1-0.5-1-1C351.1,135.7,351.6,135.3,352.1,135.3z M351.4,146.2V139h1.4v7.2H351.4z"/><path class="st4" d="M357.4,146.2H356V139h1.4v1c0.5-0.9,1.4-1.2,2.2-1.2c1.7,0,2.6,1.2,2.6,2.8v4.6h-1.4v-4.3 c0-1-0.4-1.8-1.7-1.8c-1.1,0-1.7,0.9-1.7,2V146.2z"/><path class="st4" d="M369.8,146.2h-1.4l5.1-10.6h1.4L369.8,146.2z"/><path class="st4" d="M391.6,146.2V138l-3.6,8.3h-1.4L383,138v8.3h-1.5v-10.6h2l3.8,8.7l3.8-8.7h2v10.6H391.6z"/><path class="st4" d="M398,142.1l2-0.3c0.4-0.1,0.6-0.3,0.6-0.5c0-0.7-0.5-1.3-1.6-1.3c-1,0-1.5,0.6-1.6,1.5l-1.3-0.3 c0.1-1.4,1.4-2.3,3-2.3c2.2,0,3,1.2,3,2.6v3.6c0,0.6,0.1,1,0.1,1.2h-1.4c0-0.2-0.1-0.5-0.1-1c-0.3,0.5-1,1.2-2.3,1.2 c-1.5,0-2.4-1-2.4-2.2C395.8,143,396.8,142.3,398,142.1z M400.5,143.1v-0.3l-2.2,0.3c-0.6,0.1-1.1,0.4-1.1,1.1c0,0.5,0.5,1,1.2,1 C399.6,145.3,400.5,144.7,400.5,143.1z"/><path class="st4" d="M405.5,143.9c0.1,0.8,0.7,1.4,1.7,1.4c0.8,0,1.2-0.5,1.2-1c0-0.4-0.3-0.8-0.9-0.9l-1.2-0.3 c-1.1-0.2-1.8-1-1.8-2c0-1.2,1.2-2.3,2.6-2.3c2,0,2.6,1.3,2.7,1.9l-1.2,0.5c-0.1-0.4-0.4-1.2-1.5-1.2c-0.7,0-1.2,0.5-1.2,1 c0,0.4,0.3,0.8,0.8,0.9l1.2,0.3c1.3,0.3,2,1.1,2,2.1c0,1-0.9,2.2-2.6,2.2c-2,0-2.8-1.3-2.9-2.1L405.5,143.9z"/><path class="st4" d="M414.3,139h1.6v1.3h-1.6v3.8c0,0.7,0.3,1,1,1c0.2,0,0.4,0,0.6-0.1v1.2c-0.1,0-0.5,0.1-1,0.1 c-1.2,0-2-0.8-2-2.1v-4h-1.4V139h0.4c0.8,0,1.1-0.5,1.1-1.1v-1.2h1.3V139z"/><path class="st4" d="M424.7,144.2c-0.4,1.3-1.6,2.3-3.2,2.3c-1.9,0-3.6-1.4-3.6-3.9c0-2.3,1.6-3.8,3.4-3.8c2.2,0,3.5,1.5,3.5,3.8 c0,0.2,0,0.4,0,0.4h-5.4c0,1.3,1,2.2,2.2,2.2c1.2,0,1.8-0.6,2-1.5L424.7,144.2z M423.3,141.9c0-1-0.7-1.8-2-1.8 c-1.2,0-1.9,0.9-2,1.8H423.3z"/><path class="st4" d="M431.3,140.4c-0.2,0-0.4,0-0.6,0c-1.2,0-2,0.6-2,2.2v3.6h-1.4V139h1.4v1.3c0.5-1.1,1.4-1.4,2.2-1.4 c0.2,0,0.4,0,0.5,0V140.4z"/><path class="st2" d="M541.3,299.6v23.5 M530.4,308.3l10.9-10.8l10.8,10.8"/></svg>